<svg xmlns="http://www.w3.org/2000/svg" xmlns:xlink="http://www.w3.org/1999/xlink" width="2000" zoomAndPan="magnify" viewBox="0 0 1500 449.999984" height="600" preserveAspectRatio="xMidYMid meet" version="1.0"><defs><g/><clipPath id="909c1ba41e"><path d="M 166.925781 297.671875 L 438.269531 297.671875 L 438.269531 450 L 166.925781 450 Z M 166.925781 297.671875 " clip-rule="nonzero"/></clipPath><clipPath id="f59becda83"><path d="M 302.597656 535.101562 L 438.273438 297.671875 L 166.925781 297.671875 Z M 302.597656 535.101562 " clip-rule="nonzero"/></clipPath><linearGradient x1="9.145131" gradientTransform="matrix(0.927464, 0, 0, 0.927464, 166.92005, 297.671281)" y1="-9.140869" x2="237.549593" gradientUnits="userSpaceOnUse" y2="219.26361" id="68624f613f"><stop stop-opacity="1" stop-color="rgb(0%, 0%, 0%)" offset="0"/><stop stop-opacity="1" stop-color="rgb(0.108337%, 0.108337%, 0.108337%)" offset="0.0078125"/><stop stop-opacity="1" stop-color="rgb(0.325012%, 0.325012%, 0.325012%)" offset="0.015625"/><stop stop-opacity="1" stop-color="rgb(0.541687%, 0.541687%, 0.541687%)" offset="0.0234375"/><stop stop-opacity="1" stop-color="rgb(0.758362%, 0.758362%, 0.758362%)" offset="0.03125"/><stop stop-opacity="1" stop-color="rgb(0.975037%, 0.975037%, 0.975037%)" offset="0.0390625"/><stop stop-opacity="1" stop-color="rgb(1.191711%, 1.191711%, 1.191711%)" offset="0.046875"/><stop stop-opacity="1" stop-color="rgb(1.408386%, 1.408386%, 1.408386%)" offset="0.0546875"/><stop stop-opacity="1" stop-color="rgb(1.623535%, 1.623535%, 1.623535%)" offset="0.0625"/><stop stop-opacity="1" stop-color="rgb(1.84021%, 1.84021%, 1.84021%)" offset="0.0703125"/><stop stop-opacity="1" stop-color="rgb(2.056885%, 2.056885%, 2.056885%)" offset="0.078125"/><stop stop-opacity="1" stop-color="rgb(2.27356%, 2.27356%, 2.27356%)" offset="0.0859375"/><stop stop-opacity="1" stop-color="rgb(2.490234%, 2.490234%, 2.490234%)" offset="0.09375"/><stop stop-opacity="1" stop-color="rgb(2.706909%, 2.706909%, 2.706909%)" offset="0.101563"/><stop stop-opacity="1" stop-color="rgb(2.923584%, 2.923584%, 2.923584%)" offset="0.109375"/><stop stop-opacity="1" stop-color="rgb(3.140259%, 3.140259%, 3.140259%)" offset="0.117188"/><stop stop-opacity="1" stop-color="rgb(3.356934%, 3.356934%, 3.356934%)" offset="0.125"/><stop stop-opacity="1" stop-color="rgb(3.573608%, 3.573608%, 3.573608%)" offset="0.132812"/><stop stop-opacity="1" stop-color="rgb(3.790283%, 3.790283%, 3.790283%)" offset="0.140625"/><stop stop-opacity="1" stop-color="rgb(4.006958%, 4.006958%, 4.006958%)" offset="0.148438"/><stop stop-opacity="1" stop-color="rgb(4.223633%, 4.223633%, 4.223633%)" offset="0.15625"/><stop stop-opacity="1" stop-color="rgb(4.440308%, 4.440308%, 4.440308%)" offset="0.164062"/><stop stop-opacity="1" stop-color="rgb(4.656982%, 4.656982%, 4.656982%)" offset="0.171875"/><stop stop-opacity="1" stop-color="rgb(4.873657%, 4.873657%, 4.873657%)" offset="0.179687"/><stop stop-opacity="1" stop-color="rgb(5.090332%, 5.090332%, 5.090332%)" offset="0.1875"/><stop stop-opacity="1" stop-color="rgb(5.307007%, 5.307007%, 5.307007%)" offset="0.195313"/><stop stop-opacity="1" stop-color="rgb(5.523682%, 5.523682%, 5.523682%)" offset="0.203125"/><stop stop-opacity="1" stop-color="rgb(5.740356%, 5.740356%, 5.740356%)" offset="0.210938"/><stop stop-opacity="1" stop-color="rgb(5.957031%, 5.957031%, 5.957031%)" offset="0.21875"/><stop stop-opacity="1" stop-color="rgb(6.173706%, 6.173706%, 6.173706%)" offset="0.226562"/><stop stop-opacity="1" stop-color="rgb(6.390381%, 6.390381%, 6.390381%)" offset="0.234375"/><stop stop-opacity="1" stop-color="rgb(6.607056%, 6.607056%, 6.607056%)" offset="0.242187"/><stop stop-opacity="1" stop-color="rgb(6.82373%, 6.82373%, 6.82373%)" offset="0.25"/><stop stop-opacity="1" stop-color="rgb(7.040405%, 7.040405%, 7.040405%)" offset="0.257812"/><stop stop-opacity="1" stop-color="rgb(7.25708%, 7.25708%, 7.25708%)" offset="0.265625"/><stop stop-opacity="1" stop-color="rgb(7.473755%, 7.473755%, 7.473755%)" offset="0.273438"/><stop stop-opacity="1" stop-color="rgb(7.69043%, 7.69043%, 7.69043%)" offset="0.28125"/><stop stop-opacity="1" stop-color="rgb(7.907104%, 7.907104%, 7.907104%)" offset="0.289062"/><stop stop-opacity="1" stop-color="rgb(8.123779%, 8.123779%, 8.123779%)" offset="0.296875"/><stop stop-opacity="1" stop-color="rgb(8.340454%, 8.340454%, 8.340454%)" offset="0.304688"/><stop stop-opacity="1" stop-color="rgb(8.557129%, 8.557129%, 8.557129%)" offset="0.3125"/><stop stop-opacity="1" stop-color="rgb(8.773804%, 8.773804%, 8.773804%)" offset="0.320313"/><stop stop-opacity="1" stop-color="rgb(8.990479%, 8.990479%, 8.990479%)" offset="0.328125"/><stop stop-opacity="1" stop-color="rgb(9.207153%, 9.207153%, 9.207153%)" offset="0.335938"/><stop stop-opacity="1" stop-color="rgb(9.423828%, 9.423828%, 9.423828%)" offset="0.34375"/><stop stop-opacity="1" stop-color="rgb(9.640503%, 9.640503%, 9.640503%)" offset="0.351563"/><stop stop-opacity="1" stop-color="rgb(9.857178%, 9.857178%, 9.857178%)" offset="0.359375"/><stop stop-opacity="1" stop-color="rgb(10.073853%, 10.073853%, 10.073853%)" offset="0.359542"/><stop stop-opacity="1" stop-color="rgb(10.18219%, 10.18219%, 10.18219%)" offset="0.367188"/><stop stop-opacity="1" stop-color="rgb(10.290527%, 10.290527%, 10.290527%)" offset="0.375"/><stop stop-opacity="1" stop-color="rgb(10.505676%, 10.505676%, 10.505676%)" offset="0.382813"/><stop stop-opacity="1" stop-color="rgb(10.722351%, 10.722351%, 10.722351%)" offset="0.390625"/><stop stop-opacity="1" stop-color="rgb(10.939026%, 10.939026%, 10.939026%)" offset="0.398438"/><stop stop-opacity="1" stop-color="rgb(11.155701%, 11.155701%, 11.155701%)" offset="0.40625"/><stop stop-opacity="1" stop-color="rgb(11.372375%, 11.372375%, 11.372375%)" offset="0.414062"/><stop stop-opacity="1" stop-color="rgb(11.58905%, 11.58905%, 11.58905%)" offset="0.421875"/><stop stop-opacity="1" stop-color="rgb(11.805725%, 11.805725%, 11.805725%)" offset="0.429688"/><stop stop-opacity="1" stop-color="rgb(12.0224%, 12.0224%, 12.0224%)" offset="0.4375"/><stop stop-opacity="1" stop-color="rgb(12.239075%, 12.239075%, 12.239075%)" offset="0.445313"/><stop stop-opacity="1" stop-color="rgb(12.45575%, 12.45575%, 12.45575%)" offset="0.453125"/><stop stop-opacity="1" stop-color="rgb(12.672424%, 12.672424%, 12.672424%)" offset="0.460938"/><stop stop-opacity="1" stop-color="rgb(12.889099%, 12.889099%, 12.889099%)" offset="0.46875"/><stop stop-opacity="1" stop-color="rgb(13.105774%, 13.105774%, 13.105774%)" offset="0.476563"/><stop stop-opacity="1" stop-color="rgb(13.322449%, 13.322449%, 13.322449%)" offset="0.484375"/><stop stop-opacity="1" stop-color="rgb(13.539124%, 13.539124%, 13.539124%)" offset="0.492188"/><stop stop-opacity="1" stop-color="rgb(13.755798%, 13.755798%, 13.755798%)" offset="0.5"/><stop stop-opacity="1" stop-color="rgb(13.972473%, 13.972473%, 13.972473%)" offset="0.507813"/><stop stop-opacity="1" stop-color="rgb(14.189148%, 14.189148%, 14.189148%)" offset="0.515625"/><stop stop-opacity="1" stop-color="rgb(14.405823%, 14.405823%, 14.405823%)" offset="0.523438"/><stop stop-opacity="1" stop-color="rgb(14.622498%, 14.622498%, 14.622498%)" offset="0.53125"/><stop stop-opacity="1" stop-color="rgb(14.839172%, 14.839172%, 14.839172%)" offset="0.539062"/><stop stop-opacity="1" stop-color="rgb(15.055847%, 15.055847%, 15.055847%)" offset="0.546875"/><stop stop-opacity="1" stop-color="rgb(15.272522%, 15.272522%, 15.272522%)" offset="0.554688"/><stop stop-opacity="1" stop-color="rgb(15.489197%, 15.489197%, 15.489197%)" offset="0.5625"/><stop stop-opacity="1" stop-color="rgb(15.705872%, 15.705872%, 15.705872%)" offset="0.570313"/><stop stop-opacity="1" stop-color="rgb(15.922546%, 15.922546%, 15.922546%)" offset="0.578125"/><stop stop-opacity="1" stop-color="rgb(16.139221%, 16.139221%, 16.139221%)" offset="0.585938"/><stop stop-opacity="1" stop-color="rgb(16.355896%, 16.355896%, 16.355896%)" offset="0.59375"/><stop stop-opacity="1" stop-color="rgb(16.572571%, 16.572571%, 16.572571%)" offset="0.601562"/><stop stop-opacity="1" stop-color="rgb(16.789246%, 16.789246%, 16.789246%)" offset="0.609375"/><stop stop-opacity="1" stop-color="rgb(17.00592%, 17.00592%, 17.00592%)" offset="0.617188"/><stop stop-opacity="1" stop-color="rgb(17.222595%, 17.222595%, 17.222595%)" offset="0.625"/><stop stop-opacity="1" stop-color="rgb(17.43927%, 17.43927%, 17.43927%)" offset="0.632812"/><stop stop-opacity="1" stop-color="rgb(17.655945%, 17.655945%, 17.655945%)" offset="0.640458"/><stop stop-opacity="1" stop-color="rgb(17.764282%, 17.764282%, 17.764282%)" offset="0.640625"/><stop stop-opacity="1" stop-color="rgb(17.87262%, 17.87262%, 17.87262%)" offset="0.648438"/><stop stop-opacity="1" stop-color="rgb(18.089294%, 18.089294%, 18.089294%)" offset="0.65625"/><stop stop-opacity="1" stop-color="rgb(18.305969%, 18.305969%, 18.305969%)" offset="0.664063"/><stop stop-opacity="1" stop-color="rgb(18.522644%, 18.522644%, 18.522644%)" offset="0.671875"/><stop stop-opacity="1" stop-color="rgb(18.739319%, 18.739319%, 18.739319%)" offset="0.679688"/><stop stop-opacity="1" stop-color="rgb(18.955994%, 18.955994%, 18.955994%)" offset="0.6875"/><stop stop-opacity="1" stop-color="rgb(19.172668%, 19.172668%, 19.172668%)" offset="0.695313"/><stop stop-opacity="1" stop-color="rgb(19.389343%, 19.389343%, 19.389343%)" offset="0.703125"/><stop stop-opacity="1" stop-color="rgb(19.604492%, 19.604492%, 19.604492%)" offset="0.710938"/><stop stop-opacity="1" stop-color="rgb(19.821167%, 19.821167%, 19.821167%)" offset="0.71875"/><stop stop-opacity="1" stop-color="rgb(20.037842%, 20.037842%, 20.037842%)" offset="0.726562"/><stop stop-opacity="1" stop-color="rgb(20.254517%, 20.254517%, 20.254517%)" offset="0.734375"/><stop stop-opacity="1" stop-color="rgb(20.471191%, 20.471191%, 20.471191%)" offset="0.742188"/><stop stop-opacity="1" stop-color="rgb(20.687866%, 20.687866%, 20.687866%)" offset="0.75"/><stop stop-opacity="1" stop-color="rgb(20.904541%, 20.904541%, 20.904541%)" offset="0.757812"/><stop stop-opacity="1" stop-color="rgb(21.121216%, 21.121216%, 21.121216%)" offset="0.765625"/><stop stop-opacity="1" stop-color="rgb(21.337891%, 21.337891%, 21.337891%)" offset="0.773438"/><stop stop-opacity="1" stop-color="rgb(21.554565%, 21.554565%, 21.554565%)" offset="0.78125"/><stop stop-opacity="1" stop-color="rgb(21.77124%, 21.77124%, 21.77124%)" offset="0.789062"/><stop stop-opacity="1" stop-color="rgb(21.987915%, 21.987915%, 21.987915%)" offset="0.796875"/><stop stop-opacity="1" stop-color="rgb(22.20459%, 22.20459%, 22.20459%)" offset="0.804687"/><stop stop-opacity="1" stop-color="rgb(22.421265%, 22.421265%, 22.421265%)" offset="0.8125"/><stop stop-opacity="1" stop-color="rgb(22.637939%, 22.637939%, 22.637939%)" offset="0.820312"/><stop stop-opacity="1" stop-color="rgb(22.854614%, 22.854614%, 22.854614%)" offset="0.828125"/><stop stop-opacity="1" stop-color="rgb(23.071289%, 23.071289%, 23.071289%)" offset="0.835937"/><stop stop-opacity="1" stop-color="rgb(23.287964%, 23.287964%, 23.287964%)" offset="0.84375"/><stop stop-opacity="1" stop-color="rgb(23.504639%, 23.504639%, 23.504639%)" offset="0.851562"/><stop stop-opacity="1" stop-color="rgb(23.721313%, 23.721313%, 23.721313%)" offset="0.859375"/><stop stop-opacity="1" stop-color="rgb(23.937988%, 23.937988%, 23.937988%)" offset="0.867188"/><stop stop-opacity="1" stop-color="rgb(24.154663%, 24.154663%, 24.154663%)" offset="0.875"/><stop stop-opacity="1" stop-color="rgb(24.371338%, 24.371338%, 24.371338%)" offset="0.882812"/><stop stop-opacity="1" stop-color="rgb(24.588013%, 24.588013%, 24.588013%)" offset="0.890625"/><stop stop-opacity="1" stop-color="rgb(24.804688%, 24.804688%, 24.804688%)" offset="0.898438"/><stop stop-opacity="1" stop-color="rgb(25.021362%, 25.021362%, 25.021362%)" offset="0.90625"/><stop stop-opacity="1" stop-color="rgb(25.238037%, 25.238037%, 25.238037%)" offset="0.914063"/><stop stop-opacity="1" stop-color="rgb(25.454712%, 25.454712%, 25.454712%)" offset="0.921875"/><stop stop-opacity="1" stop-color="rgb(25.671387%, 25.671387%, 25.671387%)" offset="0.929688"/><stop stop-opacity="1" stop-color="rgb(25.888062%, 25.888062%, 25.888062%)" offset="0.9375"/><stop stop-opacity="1" stop-color="rgb(26.104736%, 26.104736%, 26.104736%)" offset="0.945313"/><stop stop-opacity="1" stop-color="rgb(26.321411%, 26.321411%, 26.321411%)" offset="0.953125"/><stop stop-opacity="1" stop-color="rgb(26.538086%, 26.538086%, 26.538086%)" offset="0.960938"/><stop stop-opacity="1" stop-color="rgb(26.754761%, 26.754761%, 26.754761%)" offset="0.96875"/><stop stop-opacity="1" stop-color="rgb(26.971436%, 26.971436%, 26.971436%)" offset="0.976562"/><stop stop-opacity="1" stop-color="rgb(27.18811%, 27.18811%, 27.18811%)" offset="0.984375"/><stop stop-opacity="1" stop-color="rgb(27.404785%, 27.404785%, 27.404785%)" offset="0.992188"/><stop stop-opacity="1" stop-color="rgb(27.62146%, 27.62146%, 27.62146%)" offset="1"/></linearGradient><clipPath id="941d68ea82"><path d="M 0 0 L 355.121094 0 L 355.121094 293.773438 L 0 293.773438 Z M 0 0 " clip-rule="nonzero"/></clipPath><clipPath id="1e34243a0f"><path d="M 138.617188 -85.117188 L -77.890625 293.773438 L 355.121094 293.773438 Z M 138.617188 -85.117188 " clip-rule="nonzero"/></clipPath><linearGradient x1="9.145134" gradientTransform="matrix(-1.480032, 0, 0, -1.480032, 355.129164, 293.771562)" y1="-9.140866" x2="228.361421" gradientUnits="userSpaceOnUse" y2="210.075438" id="0a6d9e9057"><stop stop-opacity="1" stop-color="rgb(0%, 0%, 0%)" offset="0"/><stop stop-opacity="1" stop-color="rgb(0.10376%, 0.10376%, 0.10376%)" offset="0.0078125"/><stop stop-opacity="1" stop-color="rgb(0.311279%, 0.311279%, 0.311279%)" offset="0.015625"/><stop stop-opacity="1" stop-color="rgb(0.518799%, 0.518799%, 0.518799%)" offset="0.0234375"/><stop stop-opacity="1" stop-color="rgb(0.726318%, 0.726318%, 0.726318%)" offset="0.03125"/><stop stop-opacity="1" stop-color="rgb(0.935364%, 0.935364%, 0.935364%)" offset="0.0390625"/><stop stop-opacity="1" stop-color="rgb(1.142883%, 1.142883%, 1.142883%)" offset="0.046875"/><stop stop-opacity="1" stop-color="rgb(1.350403%, 1.350403%, 1.350403%)" offset="0.0546875"/><stop stop-opacity="1" stop-color="rgb(1.559448%, 1.559448%, 1.559448%)" offset="0.0625"/><stop stop-opacity="1" stop-color="rgb(1.766968%, 1.766968%, 1.766968%)" offset="0.0703125"/><stop stop-opacity="1" stop-color="rgb(1.974487%, 1.974487%, 1.974487%)" offset="0.078125"/><stop stop-opacity="1" stop-color="rgb(2.182007%, 2.182007%, 2.182007%)" offset="0.0859375"/><stop stop-opacity="1" stop-color="rgb(2.391052%, 2.391052%, 2.391052%)" offset="0.09375"/><stop stop-opacity="1" stop-color="rgb(2.598572%, 2.598572%, 2.598572%)" offset="0.101563"/><stop stop-opacity="1" stop-color="rgb(2.806091%, 2.806091%, 2.806091%)" offset="0.109375"/><stop stop-opacity="1" stop-color="rgb(3.013611%, 3.013611%, 3.013611%)" offset="0.117188"/><stop stop-opacity="1" stop-color="rgb(3.222656%, 3.222656%, 3.222656%)" offset="0.125"/><stop stop-opacity="1" stop-color="rgb(3.430176%, 3.430176%, 3.430176%)" offset="0.132813"/><stop stop-opacity="1" stop-color="rgb(3.637695%, 3.637695%, 3.637695%)" offset="0.140625"/><stop stop-opacity="1" stop-color="rgb(3.845215%, 3.845215%, 3.845215%)" offset="0.148438"/><stop stop-opacity="1" stop-color="rgb(4.05426%, 4.05426%, 4.05426%)" offset="0.15625"/><stop stop-opacity="1" stop-color="rgb(4.26178%, 4.26178%, 4.26178%)" offset="0.164063"/><stop stop-opacity="1" stop-color="rgb(4.469299%, 4.469299%, 4.469299%)" offset="0.171875"/><stop stop-opacity="1" stop-color="rgb(4.676819%, 4.676819%, 4.676819%)" offset="0.179688"/><stop stop-opacity="1" stop-color="rgb(4.885864%, 4.885864%, 4.885864%)" offset="0.1875"/><stop stop-opacity="1" stop-color="rgb(5.093384%, 5.093384%, 5.093384%)" offset="0.195312"/><stop stop-opacity="1" stop-color="rgb(5.300903%, 5.300903%, 5.300903%)" offset="0.203125"/><stop stop-opacity="1" stop-color="rgb(5.509949%, 5.509949%, 5.509949%)" offset="0.210938"/><stop stop-opacity="1" stop-color="rgb(5.717468%, 5.717468%, 5.717468%)" offset="0.21875"/><stop stop-opacity="1" stop-color="rgb(5.924988%, 5.924988%, 5.924988%)" offset="0.226563"/><stop stop-opacity="1" stop-color="rgb(6.132507%, 6.132507%, 6.132507%)" offset="0.234375"/><stop stop-opacity="1" stop-color="rgb(6.341553%, 6.341553%, 6.341553%)" offset="0.242188"/><stop stop-opacity="1" stop-color="rgb(6.549072%, 6.549072%, 6.549072%)" offset="0.25"/><stop stop-opacity="1" stop-color="rgb(6.756592%, 6.756592%, 6.756592%)" offset="0.257813"/><stop stop-opacity="1" stop-color="rgb(6.964111%, 6.964111%, 6.964111%)" offset="0.265625"/><stop stop-opacity="1" stop-color="rgb(7.173157%, 7.173157%, 7.173157%)" offset="0.273438"/><stop stop-opacity="1" stop-color="rgb(7.380676%, 7.380676%, 7.380676%)" offset="0.28125"/><stop stop-opacity="1" stop-color="rgb(7.588196%, 7.588196%, 7.588196%)" offset="0.289063"/><stop stop-opacity="1" stop-color="rgb(7.795715%, 7.795715%, 7.795715%)" offset="0.296875"/><stop stop-opacity="1" stop-color="rgb(8.004761%, 8.004761%, 8.004761%)" offset="0.304688"/><stop stop-opacity="1" stop-color="rgb(8.21228%, 8.21228%, 8.21228%)" offset="0.3125"/><stop stop-opacity="1" stop-color="rgb(8.4198%, 8.4198%, 8.4198%)" offset="0.320312"/><stop stop-opacity="1" stop-color="rgb(8.628845%, 8.628845%, 8.628845%)" offset="0.328125"/><stop stop-opacity="1" stop-color="rgb(8.836365%, 8.836365%, 8.836365%)" offset="0.335937"/><stop stop-opacity="1" stop-color="rgb(9.043884%, 9.043884%, 9.043884%)" offset="0.34375"/><stop stop-opacity="1" stop-color="rgb(9.251404%, 9.251404%, 9.251404%)" offset="0.351563"/><stop stop-opacity="1" stop-color="rgb(9.460449%, 9.460449%, 9.460449%)" offset="0.359375"/><stop stop-opacity="1" stop-color="rgb(9.667969%, 9.667969%, 9.667969%)" offset="0.367188"/><stop stop-opacity="1" stop-color="rgb(9.875488%, 9.875488%, 9.875488%)" offset="0.375"/><stop stop-opacity="1" stop-color="rgb(10.083008%, 10.083008%, 10.083008%)" offset="0.382812"/><stop stop-opacity="1" stop-color="rgb(10.292053%, 10.292053%, 10.292053%)" offset="0.390625"/><stop stop-opacity="1" stop-color="rgb(10.499573%, 10.499573%, 10.499573%)" offset="0.398437"/><stop stop-opacity="1" stop-color="rgb(10.707092%, 10.707092%, 10.707092%)" offset="0.40625"/><stop stop-opacity="1" stop-color="rgb(10.914612%, 10.914612%, 10.914612%)" offset="0.414062"/><stop stop-opacity="1" stop-color="rgb(11.123657%, 11.123657%, 11.123657%)" offset="0.421875"/><stop stop-opacity="1" stop-color="rgb(11.331177%, 11.331177%, 11.331177%)" offset="0.429688"/><stop stop-opacity="1" stop-color="rgb(11.538696%, 11.538696%, 11.538696%)" offset="0.4375"/><stop stop-opacity="1" stop-color="rgb(11.746216%, 11.746216%, 11.746216%)" offset="0.445312"/><stop stop-opacity="1" stop-color="rgb(11.955261%, 11.955261%, 11.955261%)" offset="0.452726"/><stop stop-opacity="1" stop-color="rgb(12.059021%, 12.059021%, 12.059021%)" offset="0.453125"/><stop stop-opacity="1" stop-color="rgb(12.162781%, 12.162781%, 12.162781%)" offset="0.460938"/><stop stop-opacity="1" stop-color="rgb(12.3703%, 12.3703%, 12.3703%)" offset="0.46875"/><stop stop-opacity="1" stop-color="rgb(12.579346%, 12.579346%, 12.579346%)" offset="0.476562"/><stop stop-opacity="1" stop-color="rgb(12.786865%, 12.786865%, 12.786865%)" offset="0.484375"/><stop stop-opacity="1" stop-color="rgb(12.994385%, 12.994385%, 12.994385%)" offset="0.492187"/><stop stop-opacity="1" stop-color="rgb(13.201904%, 13.201904%, 13.201904%)" offset="0.5"/><stop stop-opacity="1" stop-color="rgb(13.41095%, 13.41095%, 13.41095%)" offset="0.507812"/><stop stop-opacity="1" stop-color="rgb(13.618469%, 13.618469%, 13.618469%)" offset="0.515625"/><stop stop-opacity="1" stop-color="rgb(13.825989%, 13.825989%, 13.825989%)" offset="0.523438"/><stop stop-opacity="1" stop-color="rgb(14.033508%, 14.033508%, 14.033508%)" offset="0.53125"/><stop stop-opacity="1" stop-color="rgb(14.242554%, 14.242554%, 14.242554%)" offset="0.539062"/><stop stop-opacity="1" stop-color="rgb(14.450073%, 14.450073%, 14.450073%)" offset="0.546875"/><stop stop-opacity="1" stop-color="rgb(14.657593%, 14.657593%, 14.657593%)" offset="0.547274"/><stop stop-opacity="1" stop-color="rgb(14.761353%, 14.761353%, 14.761353%)" offset="0.554688"/><stop stop-opacity="1" stop-color="rgb(14.865112%, 14.865112%, 14.865112%)" offset="0.5625"/><stop stop-opacity="1" stop-color="rgb(15.074158%, 15.074158%, 15.074158%)" offset="0.570312"/><stop stop-opacity="1" stop-color="rgb(15.281677%, 15.281677%, 15.281677%)" offset="0.578125"/><stop stop-opacity="1" stop-color="rgb(15.489197%, 15.489197%, 15.489197%)" offset="0.585938"/><stop stop-opacity="1" stop-color="rgb(15.698242%, 15.698242%, 15.698242%)" offset="0.59375"/><stop stop-opacity="1" stop-color="rgb(15.905762%, 15.905762%, 15.905762%)" offset="0.601563"/><stop stop-opacity="1" stop-color="rgb(16.113281%, 16.113281%, 16.113281%)" offset="0.609375"/><stop stop-opacity="1" stop-color="rgb(16.320801%, 16.320801%, 16.320801%)" offset="0.617188"/><stop stop-opacity="1" stop-color="rgb(16.529846%, 16.529846%, 16.529846%)" offset="0.625"/><stop stop-opacity="1" stop-color="rgb(16.737366%, 16.737366%, 16.737366%)" offset="0.632812"/><stop stop-opacity="1" stop-color="rgb(16.944885%, 16.944885%, 16.944885%)" offset="0.640625"/><stop stop-opacity="1" stop-color="rgb(17.152405%, 17.152405%, 17.152405%)" offset="0.648438"/><stop stop-opacity="1" stop-color="rgb(17.36145%, 17.36145%, 17.36145%)" offset="0.65625"/><stop stop-opacity="1" stop-color="rgb(17.56897%, 17.56897%, 17.56897%)" offset="0.664062"/><stop stop-opacity="1" stop-color="rgb(17.776489%, 17.776489%, 17.776489%)" offset="0.671875"/><stop stop-opacity="1" stop-color="rgb(17.984009%, 17.984009%, 17.984009%)" offset="0.679688"/><stop stop-opacity="1" stop-color="rgb(18.193054%, 18.193054%, 18.193054%)" offset="0.6875"/><stop stop-opacity="1" stop-color="rgb(18.400574%, 18.400574%, 18.400574%)" offset="0.695312"/><stop stop-opacity="1" stop-color="rgb(18.608093%, 18.608093%, 18.608093%)" offset="0.703125"/><stop stop-opacity="1" stop-color="rgb(18.815613%, 18.815613%, 18.815613%)" offset="0.710937"/><stop stop-opacity="1" stop-color="rgb(19.024658%, 19.024658%, 19.024658%)" offset="0.71875"/><stop stop-opacity="1" stop-color="rgb(19.232178%, 19.232178%, 19.232178%)" offset="0.726562"/><stop stop-opacity="1" stop-color="rgb(19.439697%, 19.439697%, 19.439697%)" offset="0.734375"/><stop stop-opacity="1" stop-color="rgb(19.648743%, 19.648743%, 19.648743%)" offset="0.742188"/><stop stop-opacity="1" stop-color="rgb(19.856262%, 19.856262%, 19.856262%)" offset="0.75"/><stop stop-opacity="1" stop-color="rgb(20.063782%, 20.063782%, 20.063782%)" offset="0.757812"/><stop stop-opacity="1" stop-color="rgb(20.271301%, 20.271301%, 20.271301%)" offset="0.765625"/><stop stop-opacity="1" stop-color="rgb(20.480347%, 20.480347%, 20.480347%)" offset="0.773438"/><stop stop-opacity="1" stop-color="rgb(20.687866%, 20.687866%, 20.687866%)" offset="0.78125"/><stop stop-opacity="1" stop-color="rgb(20.895386%, 20.895386%, 20.895386%)" offset="0.789062"/><stop stop-opacity="1" stop-color="rgb(21.102905%, 21.102905%, 21.102905%)" offset="0.796875"/><stop stop-opacity="1" stop-color="rgb(21.311951%, 21.311951%, 21.311951%)" offset="0.804688"/><stop stop-opacity="1" stop-color="rgb(21.51947%, 21.51947%, 21.51947%)" offset="0.8125"/><stop stop-opacity="1" stop-color="rgb(21.72699%, 21.72699%, 21.72699%)" offset="0.820312"/><stop stop-opacity="1" stop-color="rgb(21.934509%, 21.934509%, 21.934509%)" offset="0.828125"/><stop stop-opacity="1" stop-color="rgb(22.143555%, 22.143555%, 22.143555%)" offset="0.835938"/><stop stop-opacity="1" stop-color="rgb(22.351074%, 22.351074%, 22.351074%)" offset="0.84375"/><stop stop-opacity="1" stop-color="rgb(22.558594%, 22.558594%, 22.558594%)" offset="0.851562"/><stop stop-opacity="1" stop-color="rgb(22.767639%, 22.767639%, 22.767639%)" offset="0.859375"/><stop stop-opacity="1" stop-color="rgb(22.975159%, 22.975159%, 22.975159%)" offset="0.867188"/><stop stop-opacity="1" stop-color="rgb(23.182678%, 23.182678%, 23.182678%)" offset="0.875"/><stop stop-opacity="1" stop-color="rgb(23.390198%, 23.390198%, 23.390198%)" offset="0.882812"/><stop stop-opacity="1" stop-color="rgb(23.599243%, 23.599243%, 23.599243%)" offset="0.890625"/><stop stop-opacity="1" stop-color="rgb(23.806763%, 23.806763%, 23.806763%)" offset="0.898438"/><stop stop-opacity="1" stop-color="rgb(24.014282%, 24.014282%, 24.014282%)" offset="0.90625"/><stop stop-opacity="1" stop-color="rgb(24.221802%, 24.221802%, 24.221802%)" offset="0.914062"/><stop stop-opacity="1" stop-color="rgb(24.430847%, 24.430847%, 24.430847%)" offset="0.921875"/><stop stop-opacity="1" stop-color="rgb(24.638367%, 24.638367%, 24.638367%)" offset="0.929688"/><stop stop-opacity="1" stop-color="rgb(24.845886%, 24.845886%, 24.845886%)" offset="0.9375"/><stop stop-opacity="1" stop-color="rgb(25.053406%, 25.053406%, 25.053406%)" offset="0.945312"/><stop stop-opacity="1" stop-color="rgb(25.262451%, 25.262451%, 25.262451%)" offset="0.953125"/><stop stop-opacity="1" stop-color="rgb(25.469971%, 25.469971%, 25.469971%)" offset="0.960938"/><stop stop-opacity="1" stop-color="rgb(25.67749%, 25.67749%, 25.67749%)" offset="0.96875"/><stop stop-opacity="1" stop-color="rgb(25.88501%, 25.88501%, 25.88501%)" offset="0.976563"/><stop stop-opacity="1" stop-color="rgb(26.094055%, 26.094055%, 26.094055%)" offset="0.984375"/><stop stop-opacity="1" stop-color="rgb(26.301575%, 26.301575%, 26.301575%)" offset="0.992188"/><stop stop-opacity="1" stop-color="rgb(26.509094%, 26.509094%, 26.509094%)" offset="1"/></linearGradient><clipPath id="e9e1140a6d"><path d="M 1256.035156 384.617188 L 1281.535156 384.617188 L 1281.535156 401.117188 L 1256.035156 401.117188 Z M 1256.035156 384.617188 " clip-rule="nonzero"/></clipPath><clipPath id="18095d44e7"><path d="M 1108.6875 383.667969 L 1129.6875 383.667969 L 1129.6875 404.667969 L 1108.6875 404.667969 Z M 1108.6875 383.667969 " clip-rule="nonzero"/></clipPath></defs><rect x="-150" width="1800" fill="#ffffff" y="-44.999998" height="539.99998" fill-opacity="1"/><rect x="-150" width="1800" fill="#000000" y="-44.999998" height="539.99998" fill-opacity="1"/><g clip-path="url(#909c1ba41e)"><g clip-path="url(#f59becda83)"><path fill="url(#68624f613f)" d="M 166.925781 297.671875 L 166.925781 450 L 438.269531 450 L 438.269531 297.671875 Z M 166.925781 297.671875 " fill-rule="nonzero"/></g></g><g clip-path="url(#941d68ea82)"><g clip-path="url(#1e34243a0f)"><path fill="url(#0a6d9e9057)" d="M 355.121094 293.773438 L 355.121094 0 L 0 0 L 0 293.773438 Z M 355.121094 293.773438 " fill-rule="nonzero"/></g></g><g clip-path="url(#e9e1140a6d)"><path fill="#ffffff" d="M 1279.851562 384.660156 L 1257.460938 384.660156 C 1257.269531 384.660156 1257.089844 384.695312 1256.914062 384.769531 C 1256.738281 384.84375 1256.582031 384.945312 1256.445312 385.082031 C 1256.3125 385.214844 1256.207031 385.371094 1256.136719 385.546875 C 1256.0625 385.722656 1256.027344 385.90625 1256.027344 386.09375 L 1256.027344 399.742188 C 1256.027344 399.933594 1256.0625 400.117188 1256.136719 400.292969 C 1256.207031 400.46875 1256.3125 400.625 1256.445312 400.757812 C 1256.582031 400.890625 1256.738281 400.996094 1256.914062 401.070312 C 1257.089844 401.140625 1257.269531 401.179688 1257.460938 401.179688 L 1279.851562 401.179688 C 1280.042969 401.179688 1280.226562 401.140625 1280.402344 401.070312 C 1280.578125 400.996094 1280.734375 400.890625 1280.867188 400.757812 C 1281.003906 400.625 1281.105469 400.46875 1281.179688 400.292969 C 1281.25 400.117188 1281.289062 399.933594 1281.289062 399.742188 L 1281.289062 386.09375 C 1281.289062 385.90625 1281.25 385.722656 1281.179688 385.546875 C 1281.105469 385.371094 1281.003906 385.214844 1280.867188 385.082031 C 1280.734375 384.945312 1280.578125 384.84375 1280.402344 384.769531 C 1280.226562 384.695312 1280.042969 384.660156 1279.851562 384.660156 Z M 1272.628906 392.917969 L 1280.511719 385.890625 C 1280.53125 385.957031 1280.542969 386.027344 1280.546875 386.09375 L 1280.546875 399.742188 C 1280.542969 399.8125 1280.53125 399.878906 1280.511719 399.945312 Z M 1279.851562 385.402344 C 1279.878906 385.40625 1279.90625 385.40625 1279.929688 385.410156 L 1269.113281 395.050781 C 1268.984375 395.167969 1268.832031 395.226562 1268.65625 395.226562 C 1268.480469 395.226562 1268.328125 395.167969 1268.195312 395.050781 L 1257.382812 385.410156 C 1257.410156 385.40625 1257.433594 385.40625 1257.460938 385.402344 Z M 1256.804688 399.945312 C 1256.78125 399.878906 1256.769531 399.8125 1256.769531 399.742188 L 1256.769531 386.09375 C 1256.769531 386.027344 1256.78125 385.957031 1256.804688 385.890625 L 1264.6875 392.917969 Z M 1257.460938 400.4375 C 1257.433594 400.433594 1257.410156 400.433594 1257.382812 400.429688 L 1265.246094 393.417969 L 1267.703125 395.609375 C 1267.835938 395.726562 1267.980469 395.816406 1268.148438 395.878906 C 1268.3125 395.941406 1268.480469 395.972656 1268.65625 395.972656 C 1268.832031 395.972656 1269.003906 395.941406 1269.167969 395.878906 C 1269.332031 395.816406 1269.480469 395.726562 1269.613281 395.609375 L 1272.070312 393.417969 L 1279.929688 400.425781 C 1279.90625 400.429688 1279.878906 400.433594 1279.851562 400.433594 Z M 1257.460938 400.4375 " fill-opacity="1" fill-rule="nonzero"/></g><g clip-path="url(#18095d44e7)"><path fill="#ffffff" d="M 1119.351562 383.667969 C 1113.460938 383.667969 1108.6875 388.441406 1108.6875 394.332031 C 1108.6875 400.21875 1113.460938 404.996094 1119.351562 404.996094 C 1125.242188 404.996094 1130.015625 400.21875 1130.015625 394.332031 C 1130.015625 388.441406 1125.242188 383.667969 1119.351562 383.667969 Z M 1119.351562 404.1875 C 1113.910156 404.1875 1109.496094 399.773438 1109.496094 394.332031 C 1109.496094 388.886719 1113.910156 384.476562 1119.351562 384.476562 C 1124.796875 384.476562 1129.207031 388.886719 1129.207031 394.332031 C 1129.207031 399.773438 1124.796875 404.1875 1119.351562 404.1875 Z M 1119.351562 404.1875 " fill-opacity="1" fill-rule="nonzero"/></g><path fill="#ffffff" d="M 1118.101562 399.558594 C 1117.832031 399.582031 1117.621094 399.613281 1117.40625 399.625 C 1116.1875 399.679688 1115.289062 399.203125 1114.742188 398.082031 C 1114.566406 397.726562 1114.34375 397.390625 1114.113281 397.066406 C 1113.972656 396.875 1113.777344 396.71875 1113.597656 396.554688 L 1113.59375 396.554688 C 1113.484375 396.457031 1113.53125 396.273438 1113.679688 396.25 C 1113.851562 396.21875 1114.011719 396.25 1114.167969 396.289062 C 1114.65625 396.414062 1114.972656 396.761719 1115.222656 397.175781 C 1115.789062 398.113281 1116.761719 398.507812 1117.816406 398.226562 C 1117.996094 398.179688 1118.074219 398.101562 1118.113281 397.90625 C 1118.15625 397.679688 1118.21875 397.453125 1118.285156 397.226562 C 1118.328125 397.085938 1118.308594 396.949219 1118.234375 396.820312 C 1118.160156 396.695312 1118.050781 396.613281 1117.90625 396.578125 L 1117.902344 396.578125 C 1116.808594 396.316406 1115.863281 395.828125 1115.253906 394.828125 C 1114.929688 394.296875 1114.769531 393.707031 1114.777344 393.09375 C 1114.785156 392.398438 1114.847656 391.699219 1114.929688 391.007812 C 1114.984375 390.523438 1115.210938 390.089844 1115.558594 389.742188 C 1115.683594 389.617188 1115.691406 389.515625 1115.632812 389.359375 C 1115.390625 388.710938 1115.433594 388.0625 1115.648438 387.414062 C 1115.707031 387.230469 1115.792969 387.203125 1115.96875 387.257812 C 1116.511719 387.429688 1116.914062 387.78125 1117.269531 388.203125 L 1117.273438 388.210938 C 1117.476562 388.453125 1117.726562 388.523438 1118.027344 388.425781 C 1119.152344 388.058594 1120.855469 388.054688 1121.917969 388.417969 C 1122.21875 388.519531 1122.472656 388.449219 1122.675781 388.203125 L 1122.679688 388.199219 C 1123.035156 387.777344 1123.441406 387.429688 1123.980469 387.257812 C 1124.164062 387.199219 1124.242188 387.242188 1124.296875 387.421875 C 1124.507812 388.070312 1124.546875 388.714844 1124.316406 389.367188 C 1124.285156 389.460938 1124.285156 389.621094 1124.34375 389.679688 C 1124.828125 390.171875 1125.042969 390.78125 1125.09375 391.445312 C 1125.148438 392.082031 1125.203125 392.734375 1125.144531 393.371094 C 1124.988281 395.023438 1123.984375 395.984375 1122.457031 396.464844 C 1122.328125 396.503906 1122.195312 396.539062 1122.058594 396.570312 C 1121.910156 396.605469 1121.796875 396.691406 1121.722656 396.824219 C 1121.648438 396.960938 1121.636719 397.097656 1121.6875 397.246094 C 1121.894531 397.847656 1121.863281 398.492188 1121.863281 399.132812 C 1121.859375 399.277344 1121.859375 399.425781 1121.859375 399.574219 C 1121.859375 399.820312 1121.8125 400.054688 1121.71875 400.285156 C 1121.621094 400.511719 1121.488281 400.710938 1121.3125 400.886719 C 1121.140625 401.058594 1120.9375 401.191406 1120.710938 401.285156 C 1120.484375 401.382812 1120.246094 401.429688 1120 401.429688 L 1119.960938 401.429688 C 1119.710938 401.429688 1119.476562 401.382812 1119.246094 401.285156 C 1119.019531 401.191406 1118.820312 401.058594 1118.644531 400.882812 C 1118.46875 400.710938 1118.335938 400.507812 1118.242188 400.28125 C 1118.148438 400.054688 1118.101562 399.816406 1118.101562 399.570312 Z M 1118.101562 399.558594 " fill-opacity="1" fill-rule="nonzero"/><g fill="#ffffff" fill-opacity="1"><g transform="translate(780.518848, 269.024541)"><g><path d="M 9.6875 0 L 9.6875 -99.734375 L 49.734375 -99.734375 C 60.085938 -99.734375 67.992188 -97.332031 73.453125 -92.53125 C 78.910156 -87.738281 81.640625 -81.59375 81.640625 -74.09375 C 81.640625 -67.820312 79.953125 -62.8125 76.578125 -59.0625 C 73.210938 -55.3125 69.109375 -52.769531 64.265625 -51.4375 C 69.960938 -50.300781 74.660156 -47.472656 78.359375 -42.953125 C 82.066406 -38.441406 83.921875 -33.195312 83.921875 -27.21875 C 83.921875 -19.332031 81.070312 -12.820312 75.375 -7.6875 C 69.675781 -2.5625 61.601562 0 51.15625 0 Z M 27.921875 -57.84375 L 47.015625 -57.84375 C 52.148438 -57.84375 56.09375 -59.03125 58.84375 -61.40625 C 61.601562 -63.78125 62.984375 -67.15625 62.984375 -71.53125 C 62.984375 -75.707031 61.628906 -79.003906 58.921875 -81.421875 C 56.210938 -83.847656 52.148438 -85.0625 46.734375 -85.0625 L 27.921875 -85.0625 Z M 27.921875 -14.8125 L 48.296875 -14.8125 C 53.710938 -14.8125 57.914062 -16.070312 60.90625 -18.59375 C 63.90625 -21.113281 65.40625 -24.648438 65.40625 -29.203125 C 65.40625 -33.859375 63.835938 -37.515625 60.703125 -40.171875 C 57.566406 -42.835938 53.335938 -44.171875 48.015625 -44.171875 L 27.921875 -44.171875 Z M 27.921875 -14.8125 "/></g></g></g><g fill="#ffffff" fill-opacity="1"><g transform="translate(856.013588, 269.024541)"><g><path d="M 43.59375 1.703125 C 36.46875 1.703125 30.148438 0.1875 24.640625 -2.84375 C 19.140625 -5.882812 14.820312 -10.160156 11.6875 -15.671875 C 8.550781 -21.179688 6.984375 -27.546875 6.984375 -34.765625 C 6.984375 -42.078125 8.523438 -48.582031 11.609375 -54.28125 C 14.703125 -59.976562 18.976562 -64.414062 24.4375 -67.59375 C 29.894531 -70.78125 36.332031 -72.375 43.75 -72.375 C 50.675781 -72.375 56.800781 -70.851562 62.125 -67.8125 C 67.445312 -64.78125 71.601562 -60.628906 74.59375 -55.359375 C 77.582031 -50.085938 79.078125 -44.222656 79.078125 -37.765625 C 79.078125 -36.710938 79.050781 -35.613281 79 -34.46875 C 78.957031 -33.332031 78.890625 -32.148438 78.796875 -30.921875 L 25.078125 -30.921875 C 25.453125 -25.410156 27.375 -21.085938 30.84375 -17.953125 C 34.3125 -14.816406 38.515625 -13.25 43.453125 -13.25 C 47.160156 -13.25 50.269531 -14.078125 52.78125 -15.734375 C 55.300781 -17.398438 57.179688 -19.566406 58.421875 -22.234375 L 76.9375 -22.234375 C 75.613281 -17.765625 73.40625 -13.703125 70.3125 -10.046875 C 67.226562 -6.390625 63.429688 -3.515625 58.921875 -1.421875 C 54.410156 0.660156 49.300781 1.703125 43.59375 1.703125 Z M 43.75 -57.5625 C 39.28125 -57.5625 35.332031 -56.300781 31.90625 -53.78125 C 28.488281 -51.269531 26.304688 -47.445312 25.359375 -42.3125 L 60.5625 -42.3125 C 60.269531 -46.96875 58.554688 -50.671875 55.421875 -53.421875 C 52.285156 -56.179688 48.394531 -57.5625 43.75 -57.5625 Z M 43.75 -57.5625 "/></g></g></g><g fill="#ffffff" fill-opacity="1"><g transform="translate(926.807342, 269.024541)"><g><path d="M 9.265625 0 L 9.265625 -70.671875 L 25.359375 -70.671875 L 26.78125 -58.703125 C 28.96875 -62.878906 32.125 -66.203125 36.25 -68.671875 C 40.382812 -71.140625 45.253906 -72.375 50.859375 -72.375 C 59.597656 -72.375 66.390625 -69.617188 71.234375 -64.109375 C 76.085938 -58.609375 78.515625 -50.535156 78.515625 -39.890625 L 78.515625 0 L 60.265625 0 L 60.265625 -38.1875 C 60.265625 -44.269531 59.03125 -48.925781 56.5625 -52.15625 C 54.09375 -55.382812 50.25 -57 45.03125 -57 C 39.894531 -57 35.6875 -55.191406 32.40625 -51.578125 C 29.132812 -47.972656 27.5 -42.9375 27.5 -36.46875 L 27.5 0 Z M 9.265625 0 "/></g></g></g><g fill="#ffffff" fill-opacity="1"><g transform="translate(999.025651, 269.024541)"><g/></g></g><g fill="#ffffff" fill-opacity="1"><g transform="translate(1018.535801, 269.024541)"><g><path d="M 43.75 1.703125 C 36.425781 1.703125 29.960938 0.445312 24.359375 -2.0625 C 18.753906 -4.582031 14.335938 -8.191406 11.109375 -12.890625 C 7.878906 -17.597656 6.21875 -23.320312 6.125 -30.0625 L 25.359375 -30.0625 C 25.546875 -25.40625 27.226562 -21.484375 30.40625 -18.296875 C 33.59375 -15.117188 37.988281 -13.53125 43.59375 -13.53125 C 48.4375 -13.53125 52.285156 -14.691406 55.140625 -17.015625 C 57.992188 -19.347656 59.421875 -22.460938 59.421875 -26.359375 C 59.421875 -30.441406 58.160156 -33.625 55.640625 -35.90625 C 53.117188 -38.1875 49.769531 -40.035156 45.59375 -41.453125 C 41.414062 -42.878906 36.953125 -44.398438 32.203125 -46.015625 C 24.503906 -48.679688 18.632812 -52.101562 14.59375 -56.28125 C 10.5625 -60.457031 8.546875 -66.015625 8.546875 -72.953125 C 8.453125 -78.835938 9.851562 -83.894531 12.75 -88.125 C 15.644531 -92.351562 19.609375 -95.628906 24.640625 -97.953125 C 29.679688 -100.285156 35.476562 -101.453125 42.03125 -101.453125 C 48.675781 -101.453125 54.539062 -100.265625 59.625 -97.890625 C 64.707031 -95.515625 68.695312 -92.1875 71.59375 -87.90625 C 74.488281 -83.632812 76.035156 -78.554688 76.234375 -72.671875 L 56.703125 -72.671875 C 56.609375 -76.179688 55.253906 -79.289062 52.640625 -82 C 50.035156 -84.707031 46.40625 -86.0625 41.75 -86.0625 C 37.757812 -86.15625 34.410156 -85.179688 31.703125 -83.140625 C 28.992188 -81.097656 27.640625 -78.128906 27.640625 -74.234375 C 27.640625 -70.910156 28.679688 -68.273438 30.765625 -66.328125 C 32.859375 -64.378906 35.707031 -62.738281 39.3125 -61.40625 C 42.925781 -60.082031 47.0625 -58.660156 51.71875 -57.140625 C 56.65625 -55.429688 61.164062 -53.4375 65.25 -51.15625 C 69.34375 -48.875 72.625 -45.851562 75.09375 -42.09375 C 77.5625 -38.34375 78.796875 -33.523438 78.796875 -27.640625 C 78.796875 -22.421875 77.460938 -17.578125 74.796875 -13.109375 C 72.140625 -8.640625 68.195312 -5.050781 62.96875 -2.34375 C 57.75 0.351562 51.34375 1.703125 43.75 1.703125 Z M 43.75 1.703125 "/></g></g></g><g fill="#ffffff" fill-opacity="1"><g transform="translate(1089.187088, 269.024541)"><g><path d="M 43.890625 1.703125 C 36.671875 1.703125 30.304688 0.140625 24.796875 -2.984375 C 19.285156 -6.117188 14.9375 -10.488281 11.75 -16.09375 C 8.570312 -21.695312 6.984375 -28.113281 6.984375 -35.34375 C 6.984375 -42.5625 8.570312 -48.972656 11.75 -54.578125 C 14.9375 -60.179688 19.285156 -64.546875 24.796875 -67.671875 C 30.304688 -70.804688 36.671875 -72.375 43.890625 -72.375 C 52.910156 -72.375 60.503906 -70.023438 66.671875 -65.328125 C 72.847656 -60.628906 76.796875 -54.144531 78.515625 -45.875 L 59.28125 -45.875 C 58.320312 -49.300781 56.441406 -51.984375 53.640625 -53.921875 C 50.835938 -55.867188 47.539062 -56.84375 43.75 -56.84375 C 38.707031 -56.84375 34.425781 -54.941406 30.90625 -51.140625 C 27.394531 -47.347656 25.640625 -42.082031 25.640625 -35.34375 C 25.640625 -28.59375 27.394531 -23.316406 30.90625 -19.515625 C 34.425781 -15.722656 38.707031 -13.828125 43.75 -13.828125 C 47.539062 -13.828125 50.835938 -14.773438 53.640625 -16.671875 C 56.441406 -18.566406 58.320312 -21.273438 59.28125 -24.796875 L 78.515625 -24.796875 C 76.796875 -16.816406 72.847656 -10.40625 66.671875 -5.5625 C 60.503906 -0.71875 52.910156 1.703125 43.890625 1.703125 Z M 43.890625 1.703125 "/></g></g></g><g fill="#ffffff" fill-opacity="1"><g transform="translate(1160.265737, 269.024541)"><g><path d="M 9.265625 0 L 9.265625 -102.59375 L 27.5 -102.59375 L 27.5 -59.84375 C 29.875 -63.738281 33.078125 -66.800781 37.109375 -69.03125 C 41.148438 -71.257812 45.785156 -72.375 51.015625 -72.375 C 59.753906 -72.375 66.519531 -69.617188 71.3125 -64.109375 C 76.113281 -58.609375 78.515625 -50.535156 78.515625 -39.890625 L 78.515625 0 L 60.40625 0 L 60.40625 -38.1875 C 60.40625 -44.269531 59.191406 -48.925781 56.765625 -52.15625 C 54.347656 -55.382812 50.53125 -57 45.3125 -57 C 40.175781 -57 35.921875 -55.191406 32.546875 -51.578125 C 29.179688 -47.972656 27.5 -42.9375 27.5 -36.46875 L 27.5 0 Z M 9.265625 0 "/></g></g></g><g fill="#ffffff" fill-opacity="1"><g transform="translate(1232.484061, 269.024541)"><g><path d="M 43.59375 1.703125 C 36.46875 1.703125 30.148438 0.1875 24.640625 -2.84375 C 19.140625 -5.882812 14.820312 -10.160156 11.6875 -15.671875 C 8.550781 -21.179688 6.984375 -27.546875 6.984375 -34.765625 C 6.984375 -42.078125 8.523438 -48.582031 11.609375 -54.28125 C 14.703125 -59.976562 18.976562 -64.414062 24.4375 -67.59375 C 29.894531 -70.78125 36.332031 -72.375 43.75 -72.375 C 50.675781 -72.375 56.800781 -70.851562 62.125 -67.8125 C 67.445312 -64.78125 71.601562 -60.628906 74.59375 -55.359375 C 77.582031 -50.085938 79.078125 -44.222656 79.078125 -37.765625 C 79.078125 -36.710938 79.050781 -35.613281 79 -34.46875 C 78.957031 -33.332031 78.890625 -32.148438 78.796875 -30.921875 L 25.078125 -30.921875 C 25.453125 -25.410156 27.375 -21.085938 30.84375 -17.953125 C 34.3125 -14.816406 38.515625 -13.25 43.453125 -13.25 C 47.160156 -13.25 50.269531 -14.078125 52.78125 -15.734375 C 55.300781 -17.398438 57.179688 -19.566406 58.421875 -22.234375 L 76.9375 -22.234375 C 75.613281 -17.765625 73.40625 -13.703125 70.3125 -10.046875 C 67.226562 -6.390625 63.429688 -3.515625 58.921875 -1.421875 C 54.410156 0.660156 49.300781 1.703125 43.59375 1.703125 Z M 43.75 -57.5625 C 39.28125 -57.5625 35.332031 -56.300781 31.90625 -53.78125 C 28.488281 -51.269531 26.304688 -47.445312 25.359375 -42.3125 L 60.5625 -42.3125 C 60.269531 -46.96875 58.554688 -50.671875 55.421875 -53.421875 C 52.285156 -56.179688 48.394531 -57.5625 43.75 -57.5625 Z M 43.75 -57.5625 "/></g></g></g><g fill="#ffffff" fill-opacity="1"><g transform="translate(1303.277791, 269.024541)"><g><path d="M 9.265625 0 L 9.265625 -70.671875 L 25.359375 -70.671875 L 26.78125 -58.703125 C 28.96875 -62.878906 32.125 -66.203125 36.25 -68.671875 C 40.382812 -71.140625 45.253906 -72.375 50.859375 -72.375 C 59.597656 -72.375 66.390625 -69.617188 71.234375 -64.109375 C 76.085938 -58.609375 78.515625 -50.535156 78.515625 -39.890625 L 78.515625 0 L 60.265625 0 L 60.265625 -38.1875 C 60.265625 -44.269531 59.03125 -48.925781 56.5625 -52.15625 C 54.09375 -55.382812 50.25 -57 45.03125 -57 C 39.894531 -57 35.6875 -55.191406 32.40625 -51.578125 C 29.132812 -47.972656 27.5 -42.9375 27.5 -36.46875 L 27.5 0 Z M 9.265625 0 "/></g></g></g><g fill="#ffffff" fill-opacity="1"><g transform="translate(1375.496116, 269.024541)"><g><path d="M 9.265625 0 L 9.265625 -102.59375 L 27.5 -102.59375 L 27.5 -42.03125 L 52.578125 -70.671875 L 74.234375 -70.671875 L 45.3125 -38.46875 L 78.9375 0 L 56.140625 0 L 27.5 -35.484375 L 27.5 0 Z M 9.265625 0 "/></g></g></g><g fill="#ffffff" fill-opacity="1"><g transform="translate(1284.306959, 364.451837)"><g><path d="M 5.609375 0 L 0.671875 -18.6875 L 4.328125 -18.6875 L 7.6875 -3.8125 L 11.640625 -18.6875 L 15.40625 -18.6875 L 19.25 -3.8125 L 22.625 -18.6875 L 26.296875 -18.6875 L 21.234375 0 L 17.171875 0 L 13.453125 -13.859375 L 9.640625 0 Z M 5.609375 0 "/></g></g></g><g fill="#ffffff" fill-opacity="1"><g transform="translate(1308.57185, 364.451837)"><g><path d="M 8.171875 0.328125 C 6.835938 0.328125 5.65625 0.0390625 4.625 -0.53125 C 3.59375 -1.101562 2.78125 -1.90625 2.1875 -2.9375 C 1.601562 -3.96875 1.3125 -5.160156 1.3125 -6.515625 C 1.3125 -7.890625 1.597656 -9.109375 2.171875 -10.171875 C 2.753906 -11.242188 3.554688 -12.078125 4.578125 -12.671875 C 5.597656 -13.265625 6.804688 -13.5625 8.203125 -13.5625 C 9.492188 -13.5625 10.640625 -13.273438 11.640625 -12.703125 C 12.640625 -12.140625 13.414062 -11.363281 13.96875 -10.375 C 14.53125 -9.382812 14.8125 -8.285156 14.8125 -7.078125 C 14.8125 -6.878906 14.804688 -6.671875 14.796875 -6.453125 C 14.796875 -6.242188 14.785156 -6.023438 14.765625 -5.796875 L 4.703125 -5.796875 C 4.773438 -4.765625 5.132812 -3.953125 5.78125 -3.359375 C 6.425781 -2.773438 7.210938 -2.484375 8.140625 -2.484375 C 8.835938 -2.484375 9.421875 -2.640625 9.890625 -2.953125 C 10.359375 -3.265625 10.710938 -3.671875 10.953125 -4.171875 L 14.421875 -4.171875 C 14.171875 -3.328125 13.753906 -2.5625 13.171875 -1.875 C 12.597656 -1.195312 11.882812 -0.660156 11.03125 -0.265625 C 10.1875 0.128906 9.234375 0.328125 8.171875 0.328125 Z M 8.203125 -10.78125 C 7.359375 -10.78125 6.613281 -10.546875 5.96875 -10.078125 C 5.332031 -9.609375 4.925781 -8.894531 4.75 -7.9375 L 11.34375 -7.9375 C 11.289062 -8.800781 10.96875 -9.488281 10.375 -10 C 9.789062 -10.519531 9.066406 -10.78125 8.203125 -10.78125 Z M 8.203125 -10.78125 "/></g></g></g><g fill="#ffffff" fill-opacity="1"><g transform="translate(1321.838272, 364.451837)"><g><path d="M 9.59375 0.328125 C 8.59375 0.328125 7.71875 0.140625 6.96875 -0.234375 C 6.21875 -0.609375 5.613281 -1.132812 5.15625 -1.8125 L 4.78125 0 L 1.734375 0 L 1.734375 -19.21875 L 5.15625 -19.21875 L 5.15625 -11.34375 C 5.582031 -11.9375 6.144531 -12.453125 6.84375 -12.890625 C 7.550781 -13.335938 8.46875 -13.5625 9.59375 -13.5625 C 10.832031 -13.5625 11.941406 -13.257812 12.921875 -12.65625 C 13.898438 -12.050781 14.675781 -11.222656 15.25 -10.171875 C 15.820312 -9.117188 16.109375 -7.925781 16.109375 -6.59375 C 16.109375 -5.257812 15.820312 -4.070312 15.25 -3.03125 C 14.675781 -1.988281 13.898438 -1.164062 12.921875 -0.5625 C 11.941406 0.03125 10.832031 0.328125 9.59375 0.328125 Z M 8.859375 -2.671875 C 9.953125 -2.671875 10.851562 -3.035156 11.5625 -3.765625 C 12.269531 -4.492188 12.625 -5.4375 12.625 -6.59375 C 12.625 -7.75 12.269531 -8.703125 11.5625 -9.453125 C 10.851562 -10.203125 9.953125 -10.578125 8.859375 -10.578125 C 7.753906 -10.578125 6.847656 -10.207031 6.140625 -9.46875 C 5.441406 -8.726562 5.09375 -7.78125 5.09375 -6.625 C 5.09375 -5.46875 5.441406 -4.519531 6.140625 -3.78125 C 6.847656 -3.039062 7.753906 -2.671875 8.859375 -2.671875 Z M 8.859375 -2.671875 "/></g></g></g><g fill="#ffffff" fill-opacity="1"><g transform="translate(1336.546241, 364.451837)"><g/></g></g><g fill="#ffffff" fill-opacity="1"><g transform="translate(1340.202353, 364.451837)"><g><path d="M 1.8125 0 L 1.8125 -18.6875 L 8.203125 -18.6875 C 10.390625 -18.6875 12.191406 -18.300781 13.609375 -17.53125 C 15.023438 -16.757812 16.070312 -15.671875 16.75 -14.265625 C 17.4375 -12.867188 17.78125 -11.226562 17.78125 -9.34375 C 17.78125 -7.457031 17.4375 -5.816406 16.75 -4.421875 C 16.070312 -3.023438 15.023438 -1.9375 13.609375 -1.15625 C 12.191406 -0.382812 10.390625 0 8.203125 0 Z M 5.234375 -2.9375 L 8.03125 -2.9375 C 9.601562 -2.9375 10.84375 -3.1875 11.75 -3.6875 C 12.65625 -4.195312 13.300781 -4.925781 13.6875 -5.875 C 14.082031 -6.832031 14.28125 -7.988281 14.28125 -9.34375 C 14.28125 -10.675781 14.082031 -11.820312 13.6875 -12.78125 C 13.300781 -13.75 12.65625 -14.488281 11.75 -15 C 10.84375 -15.519531 9.601562 -15.78125 8.03125 -15.78125 L 5.234375 -15.78125 Z M 5.234375 -2.9375 "/></g></g></g><g fill="#ffffff" fill-opacity="1"><g transform="translate(1356.485349, 364.451837)"><g><path d="M 8.171875 0.328125 C 6.835938 0.328125 5.65625 0.0390625 4.625 -0.53125 C 3.59375 -1.101562 2.78125 -1.90625 2.1875 -2.9375 C 1.601562 -3.96875 1.3125 -5.160156 1.3125 -6.515625 C 1.3125 -7.890625 1.597656 -9.109375 2.171875 -10.171875 C 2.753906 -11.242188 3.554688 -12.078125 4.578125 -12.671875 C 5.597656 -13.265625 6.804688 -13.5625 8.203125 -13.5625 C 9.492188 -13.5625 10.640625 -13.273438 11.640625 -12.703125 C 12.640625 -12.140625 13.414062 -11.363281 13.96875 -10.375 C 14.53125 -9.382812 14.8125 -8.285156 14.8125 -7.078125 C 14.8125 -6.878906 14.804688 -6.671875 14.796875 -6.453125 C 14.796875 -6.242188 14.785156 -6.023438 14.765625 -5.796875 L 4.703125 -5.796875 C 4.773438 -4.765625 5.132812 -3.953125 5.78125 -3.359375 C 6.425781 -2.773438 7.210938 -2.484375 8.140625 -2.484375 C 8.835938 -2.484375 9.421875 -2.640625 9.890625 -2.953125 C 10.359375 -3.265625 10.710938 -3.671875 10.953125 -4.171875 L 14.421875 -4.171875 C 14.171875 -3.328125 13.753906 -2.5625 13.171875 -1.875 C 12.597656 -1.195312 11.882812 -0.660156 11.03125 -0.265625 C 10.1875 0.128906 9.234375 0.328125 8.171875 0.328125 Z M 8.203125 -10.78125 C 7.359375 -10.78125 6.613281 -10.546875 5.96875 -10.078125 C 5.332031 -9.609375 4.925781 -8.894531 4.75 -7.9375 L 11.34375 -7.9375 C 11.289062 -8.800781 10.96875 -9.488281 10.375 -10 C 9.789062 -10.519531 9.066406 -10.78125 8.203125 -10.78125 Z M 8.203125 -10.78125 "/></g></g></g><g fill="#ffffff" fill-opacity="1"><g transform="translate(1369.751774, 364.451837)"><g><path d="M 5.3125 0 L 0.453125 -13.25 L 4.03125 -13.25 L 7.390625 -3.234375 L 10.765625 -13.25 L 14.34375 -13.25 L 9.453125 0 Z M 5.3125 0 "/></g></g></g><g fill="#ffffff" fill-opacity="1"><g transform="translate(1381.816907, 364.451837)"><g><path d="M 8.171875 0.328125 C 6.835938 0.328125 5.65625 0.0390625 4.625 -0.53125 C 3.59375 -1.101562 2.78125 -1.90625 2.1875 -2.9375 C 1.601562 -3.96875 1.3125 -5.160156 1.3125 -6.515625 C 1.3125 -7.890625 1.597656 -9.109375 2.171875 -10.171875 C 2.753906 -11.242188 3.554688 -12.078125 4.578125 -12.671875 C 5.597656 -13.265625 6.804688 -13.5625 8.203125 -13.5625 C 9.492188 -13.5625 10.640625 -13.273438 11.640625 -12.703125 C 12.640625 -12.140625 13.414062 -11.363281 13.96875 -10.375 C 14.53125 -9.382812 14.8125 -8.285156 14.8125 -7.078125 C 14.8125 -6.878906 14.804688 -6.671875 14.796875 -6.453125 C 14.796875 -6.242188 14.785156 -6.023438 14.765625 -5.796875 L 4.703125 -5.796875 C 4.773438 -4.765625 5.132812 -3.953125 5.78125 -3.359375 C 6.425781 -2.773438 7.210938 -2.484375 8.140625 -2.484375 C 8.835938 -2.484375 9.421875 -2.640625 9.890625 -2.953125 C 10.359375 -3.265625 10.710938 -3.671875 10.953125 -4.171875 L 14.421875 -4.171875 C 14.171875 -3.328125 13.753906 -2.5625 13.171875 -1.875 C 12.597656 -1.195312 11.882812 -0.660156 11.03125 -0.265625 C 10.1875 0.128906 9.234375 0.328125 8.171875 0.328125 Z M 8.203125 -10.78125 C 7.359375 -10.78125 6.613281 -10.546875 5.96875 -10.078125 C 5.332031 -9.609375 4.925781 -8.894531 4.75 -7.9375 L 11.34375 -7.9375 C 11.289062 -8.800781 10.96875 -9.488281 10.375 -10 C 9.789062 -10.519531 9.066406 -10.78125 8.203125 -10.78125 Z M 8.203125 -10.78125 "/></g></g></g><g fill="#ffffff" fill-opacity="1"><g transform="translate(1395.083332, 364.451837)"><g><path d="M 1.734375 0 L 1.734375 -19.21875 L 5.15625 -19.21875 L 5.15625 0 Z M 1.734375 0 "/></g></g></g><g fill="#ffffff" fill-opacity="1"><g transform="translate(1399.300045, 364.451837)"><g><path d="M 8.09375 0.328125 C 6.8125 0.328125 5.65625 0.0351562 4.625 -0.546875 C 3.601562 -1.140625 2.796875 -1.957031 2.203125 -3 C 1.609375 -4.039062 1.3125 -5.25 1.3125 -6.625 C 1.3125 -7.988281 1.613281 -9.191406 2.21875 -10.234375 C 2.820312 -11.273438 3.632812 -12.085938 4.65625 -12.671875 C 5.675781 -13.265625 6.832031 -13.5625 8.125 -13.5625 C 9.382812 -13.5625 10.523438 -13.265625 11.546875 -12.671875 C 12.566406 -12.085938 13.375 -11.273438 13.96875 -10.234375 C 14.570312 -9.191406 14.875 -7.988281 14.875 -6.625 C 14.875 -5.25 14.570312 -4.039062 13.96875 -3 C 13.375 -1.957031 12.5625 -1.140625 11.53125 -0.546875 C 10.5 0.0351562 9.351562 0.328125 8.09375 0.328125 Z M 8.09375 -2.640625 C 8.976562 -2.640625 9.75 -2.972656 10.40625 -3.640625 C 11.070312 -4.304688 11.40625 -5.300781 11.40625 -6.625 C 11.40625 -7.9375 11.070312 -8.925781 10.40625 -9.59375 C 9.75 -10.257812 8.988281 -10.59375 8.125 -10.59375 C 7.207031 -10.59375 6.425781 -10.257812 5.78125 -9.59375 C 5.132812 -8.925781 4.8125 -7.9375 4.8125 -6.625 C 4.8125 -5.300781 5.132812 -4.304688 5.78125 -3.640625 C 6.425781 -2.972656 7.195312 -2.640625 8.09375 -2.640625 Z M 8.09375 -2.640625 "/></g></g></g><g fill="#ffffff" fill-opacity="1"><g transform="translate(1412.780028, 364.451837)"><g><path d="M 1.734375 5.875 L 1.734375 -13.25 L 4.78125 -13.25 L 5.15625 -11.34375 C 5.582031 -11.9375 6.144531 -12.453125 6.84375 -12.890625 C 7.550781 -13.335938 8.46875 -13.5625 9.59375 -13.5625 C 10.832031 -13.5625 11.941406 -13.257812 12.921875 -12.65625 C 13.898438 -12.050781 14.675781 -11.222656 15.25 -10.171875 C 15.820312 -9.117188 16.109375 -7.925781 16.109375 -6.59375 C 16.109375 -5.257812 15.820312 -4.070312 15.25 -3.03125 C 14.675781 -1.988281 13.898438 -1.164062 12.921875 -0.5625 C 11.941406 0.03125 10.832031 0.328125 9.59375 0.328125 C 8.59375 0.328125 7.71875 0.140625 6.96875 -0.234375 C 6.21875 -0.609375 5.613281 -1.132812 5.15625 -1.8125 L 5.15625 5.875 Z M 8.859375 -2.671875 C 9.953125 -2.671875 10.851562 -3.035156 11.5625 -3.765625 C 12.269531 -4.492188 12.625 -5.4375 12.625 -6.59375 C 12.625 -7.75 12.269531 -8.703125 11.5625 -9.453125 C 10.851562 -10.203125 9.953125 -10.578125 8.859375 -10.578125 C 7.753906 -10.578125 6.847656 -10.207031 6.140625 -9.46875 C 5.441406 -8.726562 5.09375 -7.78125 5.09375 -6.625 C 5.09375 -5.46875 5.441406 -4.519531 6.140625 -3.78125 C 6.847656 -3.039062 7.753906 -2.671875 8.859375 -2.671875 Z M 8.859375 -2.671875 "/></g></g></g><g fill="#ffffff" fill-opacity="1"><g transform="translate(1427.487996, 364.451837)"><g><path d="M 8.171875 0.328125 C 6.835938 0.328125 5.65625 0.0390625 4.625 -0.53125 C 3.59375 -1.101562 2.78125 -1.90625 2.1875 -2.9375 C 1.601562 -3.96875 1.3125 -5.160156 1.3125 -6.515625 C 1.3125 -7.890625 1.597656 -9.109375 2.171875 -10.171875 C 2.753906 -11.242188 3.554688 -12.078125 4.578125 -12.671875 C 5.597656 -13.265625 6.804688 -13.5625 8.203125 -13.5625 C 9.492188 -13.5625 10.640625 -13.273438 11.640625 -12.703125 C 12.640625 -12.140625 13.414062 -11.363281 13.96875 -10.375 C 14.53125 -9.382812 14.8125 -8.285156 14.8125 -7.078125 C 14.8125 -6.878906 14.804688 -6.671875 14.796875 -6.453125 C 14.796875 -6.242188 14.785156 -6.023438 14.765625 -5.796875 L 4.703125 -5.796875 C 4.773438 -4.765625 5.132812 -3.953125 5.78125 -3.359375 C 6.425781 -2.773438 7.210938 -2.484375 8.140625 -2.484375 C 8.835938 -2.484375 9.421875 -2.640625 9.890625 -2.953125 C 10.359375 -3.265625 10.710938 -3.671875 10.953125 -4.171875 L 14.421875 -4.171875 C 14.171875 -3.328125 13.753906 -2.5625 13.171875 -1.875 C 12.597656 -1.195312 11.882812 -0.660156 11.03125 -0.265625 C 10.1875 0.128906 9.234375 0.328125 8.171875 0.328125 Z M 8.203125 -10.78125 C 7.359375 -10.78125 6.613281 -10.546875 5.96875 -10.078125 C 5.332031 -9.609375 4.925781 -8.894531 4.75 -7.9375 L 11.34375 -7.9375 C 11.289062 -8.800781 10.96875 -9.488281 10.375 -10 C 9.789062 -10.519531 9.066406 -10.78125 8.203125 -10.78125 Z M 8.203125 -10.78125 "/></g></g></g><g fill="#ffffff" fill-opacity="1"><g transform="translate(1440.754421, 364.451837)"><g><path d="M 1.734375 0 L 1.734375 -13.25 L 4.78125 -13.25 L 5.09375 -10.765625 C 5.582031 -11.617188 6.238281 -12.296875 7.0625 -12.796875 C 7.882812 -13.304688 8.859375 -13.5625 9.984375 -13.5625 L 9.984375 -9.953125 L 9.03125 -9.953125 C 8.28125 -9.953125 7.609375 -9.835938 7.015625 -9.609375 C 6.429688 -9.378906 5.972656 -8.976562 5.640625 -8.40625 C 5.316406 -7.84375 5.15625 -7.050781 5.15625 -6.03125 L 5.15625 0 Z M 1.734375 0 "/></g></g></g><g fill="#ffffff" fill-opacity="1"><g transform="translate(1448.638974, 364.451837)"><g/></g></g><g fill="#ffffff" fill-opacity="1"><g transform="translate(1286.908046, 398.912782)"><g><path d="M 7.1875 0.265625 C 6.3125 0.265625 5.53125 0.0859375 4.84375 -0.265625 C 4.164062 -0.628906 3.648438 -1.132812 3.296875 -1.78125 L 3.125 0 L 1.484375 0 L 1.484375 -15.484375 L 3.296875 -15.484375 L 3.296875 -8.90625 C 3.640625 -9.425781 4.128906 -9.894531 4.765625 -10.3125 C 5.398438 -10.726562 6.210938 -10.9375 7.203125 -10.9375 C 8.265625 -10.9375 9.191406 -10.691406 9.984375 -10.203125 C 10.773438 -9.710938 11.390625 -9.039062 11.828125 -8.1875 C 12.265625 -7.34375 12.484375 -6.382812 12.484375 -5.3125 C 12.484375 -4.238281 12.265625 -3.28125 11.828125 -2.4375 C 11.390625 -1.601562 10.769531 -0.941406 9.96875 -0.453125 C 9.175781 0.0234375 8.25 0.265625 7.1875 0.265625 Z M 7 -1.3125 C 7.707031 -1.3125 8.332031 -1.476562 8.875 -1.8125 C 9.425781 -2.15625 9.859375 -2.625 10.171875 -3.21875 C 10.492188 -3.820312 10.65625 -4.523438 10.65625 -5.328125 C 10.65625 -6.140625 10.492188 -6.84375 10.171875 -7.4375 C 9.859375 -8.039062 9.425781 -8.507812 8.875 -8.84375 C 8.332031 -9.1875 7.707031 -9.359375 7 -9.359375 C 6.28125 -9.359375 5.644531 -9.1875 5.09375 -8.84375 C 4.550781 -8.507812 4.117188 -8.039062 3.796875 -7.4375 C 3.484375 -6.84375 3.328125 -6.140625 3.328125 -5.328125 C 3.328125 -4.523438 3.484375 -3.820312 3.796875 -3.21875 C 4.117188 -2.625 4.550781 -2.15625 5.09375 -1.8125 C 5.644531 -1.476562 6.28125 -1.3125 7 -1.3125 Z M 7 -1.3125 "/></g></g></g><g fill="#ffffff" fill-opacity="1"><g transform="translate(1299.229431, 398.912782)"><g><path d="M 6.28125 0.265625 C 5.257812 0.265625 4.351562 0.03125 3.5625 -0.4375 C 2.78125 -0.90625 2.160156 -1.554688 1.703125 -2.390625 C 1.253906 -3.222656 1.03125 -4.203125 1.03125 -5.328125 C 1.03125 -6.453125 1.25 -7.429688 1.6875 -8.265625 C 2.132812 -9.109375 2.753906 -9.765625 3.546875 -10.234375 C 4.347656 -10.703125 5.273438 -10.9375 6.328125 -10.9375 C 7.359375 -10.9375 8.25 -10.703125 9 -10.234375 C 9.757812 -9.765625 10.335938 -9.148438 10.734375 -8.390625 C 11.140625 -7.628906 11.34375 -6.8125 11.34375 -5.9375 C 11.34375 -5.78125 11.335938 -5.625 11.328125 -5.46875 C 11.316406 -5.3125 11.3125 -5.128906 11.3125 -4.921875 L 2.8125 -4.921875 C 2.863281 -4.109375 3.054688 -3.429688 3.390625 -2.890625 C 3.722656 -2.359375 4.144531 -1.953125 4.65625 -1.671875 C 5.164062 -1.398438 5.707031 -1.265625 6.28125 -1.265625 C 7.03125 -1.265625 7.65625 -1.4375 8.15625 -1.78125 C 8.65625 -2.125 9.019531 -2.59375 9.25 -3.1875 L 11.03125 -3.1875 C 10.75 -2.195312 10.203125 -1.375 9.390625 -0.71875 C 8.578125 -0.0625 7.539062 0.265625 6.28125 0.265625 Z M 6.28125 -9.40625 C 5.414062 -9.40625 4.648438 -9.140625 3.984375 -8.609375 C 3.316406 -8.085938 2.9375 -7.328125 2.84375 -6.328125 L 9.546875 -6.328125 C 9.503906 -7.285156 9.175781 -8.035156 8.5625 -8.578125 C 7.945312 -9.128906 7.1875 -9.40625 6.28125 -9.40625 Z M 6.28125 -9.40625 "/></g></g></g><g fill="#ffffff" fill-opacity="1"><g transform="translate(1310.282089, 398.912782)"><g><path d="M 1.484375 0 L 1.484375 -10.671875 L 3.125 -10.671875 L 3.234375 -8.75 C 3.578125 -9.425781 4.070312 -9.957031 4.71875 -10.34375 C 5.363281 -10.738281 6.09375 -10.9375 6.90625 -10.9375 C 8.164062 -10.9375 9.171875 -10.550781 9.921875 -9.78125 C 10.679688 -9.007812 11.0625 -7.828125 11.0625 -6.234375 L 11.0625 0 L 9.25 0 L 9.25 -6.046875 C 9.25 -8.265625 8.332031 -9.375 6.5 -9.375 C 5.582031 -9.375 4.816406 -9.039062 4.203125 -8.375 C 3.597656 -7.707031 3.296875 -6.757812 3.296875 -5.53125 L 3.296875 0 Z M 1.484375 0 "/></g></g></g><g fill="#ffffff" fill-opacity="1"><g transform="translate(1321.39926, 398.912782)"><g><path d="M 9.296875 4.28125 C 7.765625 4.28125 6.421875 3.984375 5.265625 3.390625 C 4.109375 2.804688 3.207031 1.976562 2.5625 0.90625 C 1.925781 -0.164062 1.609375 -1.441406 1.609375 -2.921875 C 1.609375 -4.441406 1.875 -5.863281 2.40625 -7.1875 C 2.9375 -8.507812 3.679688 -9.664062 4.640625 -10.65625 C 5.609375 -11.644531 6.742188 -12.410156 8.046875 -12.953125 C 9.347656 -13.492188 10.78125 -13.765625 12.34375 -13.765625 C 13.9375 -13.765625 15.320312 -13.457031 16.5 -12.84375 C 17.675781 -12.238281 18.582031 -11.394531 19.21875 -10.3125 C 19.863281 -9.226562 20.1875 -7.972656 20.1875 -6.546875 C 20.1875 -5.722656 20.082031 -4.910156 19.875 -4.109375 C 19.675781 -3.316406 19.378906 -2.601562 18.984375 -1.96875 C 18.585938 -1.332031 18.109375 -0.820312 17.546875 -0.4375 C 16.984375 -0.0625 16.332031 0.125 15.59375 0.125 C 14.863281 0.125 14.304688 -0.0546875 13.921875 -0.421875 C 13.546875 -0.796875 13.335938 -1.300781 13.296875 -1.9375 C 12.847656 -1.289062 12.28125 -0.785156 11.59375 -0.421875 C 10.914062 -0.0546875 10.203125 0.125 9.453125 0.125 C 8.359375 0.125 7.503906 -0.203125 6.890625 -0.859375 C 6.285156 -1.515625 5.984375 -2.40625 5.984375 -3.53125 C 5.984375 -4.320312 6.109375 -5.078125 6.359375 -5.796875 C 6.609375 -6.523438 6.960938 -7.171875 7.421875 -7.734375 C 7.878906 -8.296875 8.421875 -8.742188 9.046875 -9.078125 C 9.679688 -9.410156 10.390625 -9.578125 11.171875 -9.578125 C 12.617188 -9.578125 13.554688 -8.976562 13.984375 -7.78125 L 14.265625 -9.34375 L 15.796875 -9.34375 L 14.71875 -3.1875 C 14.613281 -2.570312 14.644531 -2.070312 14.8125 -1.6875 C 14.976562 -1.3125 15.328125 -1.125 15.859375 -1.125 C 16.316406 -1.125 16.722656 -1.285156 17.078125 -1.609375 C 17.441406 -1.929688 17.742188 -2.359375 17.984375 -2.890625 C 18.234375 -3.429688 18.414062 -4.015625 18.53125 -4.640625 C 18.65625 -5.265625 18.71875 -5.867188 18.71875 -6.453125 C 18.71875 -8.328125 18.132812 -9.800781 16.96875 -10.875 C 15.800781 -11.957031 14.191406 -12.5 12.140625 -12.5 C 10.828125 -12.5 9.625 -12.253906 8.53125 -11.765625 C 7.4375 -11.273438 6.476562 -10.597656 5.65625 -9.734375 C 4.84375 -8.878906 4.207031 -7.882812 3.75 -6.75 C 3.300781 -5.625 3.078125 -4.398438 3.078125 -3.078125 C 3.078125 -1.785156 3.34375 -0.6875 3.875 0.21875 C 4.40625 1.125 5.15625 1.8125 6.125 2.28125 C 7.101562 2.75 8.269531 2.984375 9.625 2.984375 C 10.238281 2.984375 10.851562 2.921875 11.46875 2.796875 C 12.082031 2.679688 12.65625 2.503906 13.1875 2.265625 L 13.484375 3.484375 C 12.191406 4.015625 10.796875 4.28125 9.296875 4.28125 Z M 9.984375 -1.25 C 10.597656 -1.25 11.160156 -1.410156 11.671875 -1.734375 C 12.191406 -2.066406 12.617188 -2.523438 12.953125 -3.109375 C 13.285156 -3.691406 13.488281 -4.363281 13.5625 -5.125 C 13.65625 -5.96875 13.503906 -6.691406 13.109375 -7.296875 C 12.710938 -7.898438 12.078125 -8.203125 11.203125 -8.203125 C 10.472656 -8.203125 9.835938 -7.988281 9.296875 -7.5625 C 8.765625 -7.132812 8.351562 -6.582031 8.0625 -5.90625 C 7.78125 -5.238281 7.640625 -4.539062 7.640625 -3.8125 C 7.640625 -3.03125 7.835938 -2.40625 8.234375 -1.9375 C 8.628906 -1.476562 9.210938 -1.25 9.984375 -1.25 Z M 9.984375 -1.25 "/></g></g></g><g fill="#ffffff" fill-opacity="1"><g transform="translate(1341.999676, 398.912782)"><g><path d="M 5.578125 0.265625 C 4.296875 0.265625 3.234375 -0.0546875 2.390625 -0.703125 C 1.546875 -1.347656 1.050781 -2.222656 0.90625 -3.328125 L 2.75 -3.328125 C 2.863281 -2.773438 3.160156 -2.289062 3.640625 -1.875 C 4.128906 -1.46875 4.78125 -1.265625 5.59375 -1.265625 C 6.351562 -1.265625 6.910156 -1.425781 7.265625 -1.75 C 7.628906 -2.070312 7.8125 -2.457031 7.8125 -2.90625 C 7.8125 -3.550781 7.578125 -3.976562 7.109375 -4.1875 C 6.640625 -4.40625 5.984375 -4.601562 5.140625 -4.78125 C 4.566406 -4.894531 3.992188 -5.054688 3.421875 -5.265625 C 2.847656 -5.484375 2.367188 -5.789062 1.984375 -6.1875 C 1.597656 -6.582031 1.40625 -7.101562 1.40625 -7.75 C 1.40625 -8.675781 1.75 -9.4375 2.4375 -10.03125 C 3.132812 -10.632812 4.078125 -10.9375 5.265625 -10.9375 C 6.398438 -10.9375 7.328125 -10.648438 8.046875 -10.078125 C 8.773438 -9.515625 9.195312 -8.707031 9.3125 -7.65625 L 7.53125 -7.65625 C 7.457031 -8.207031 7.222656 -8.632812 6.828125 -8.9375 C 6.429688 -9.25 5.90625 -9.40625 5.25 -9.40625 C 4.601562 -9.40625 4.101562 -9.265625 3.75 -8.984375 C 3.40625 -8.710938 3.234375 -8.359375 3.234375 -7.921875 C 3.234375 -7.484375 3.457031 -7.144531 3.90625 -6.90625 C 4.351562 -6.664062 4.96875 -6.457031 5.75 -6.28125 C 6.40625 -6.132812 7.03125 -5.957031 7.625 -5.75 C 8.21875 -5.539062 8.703125 -5.234375 9.078125 -4.828125 C 9.460938 -4.421875 9.65625 -3.832031 9.65625 -3.0625 C 9.675781 -2.09375 9.316406 -1.296875 8.578125 -0.671875 C 7.835938 -0.046875 6.835938 0.265625 5.578125 0.265625 Z M 5.578125 0.265625 "/></g></g></g><g fill="#ffffff" fill-opacity="1"><g transform="translate(1351.56855, 398.912782)"><g><path d="M 6.390625 0.265625 C 5.367188 0.265625 4.453125 0.03125 3.640625 -0.4375 C 2.835938 -0.90625 2.203125 -1.554688 1.734375 -2.390625 C 1.265625 -3.234375 1.03125 -4.210938 1.03125 -5.328125 C 1.03125 -6.453125 1.265625 -7.429688 1.734375 -8.265625 C 2.203125 -9.109375 2.835938 -9.765625 3.640625 -10.234375 C 4.453125 -10.703125 5.367188 -10.9375 6.390625 -10.9375 C 7.648438 -10.9375 8.710938 -10.601562 9.578125 -9.9375 C 10.453125 -9.28125 11.003906 -8.398438 11.234375 -7.296875 L 9.375 -7.296875 C 9.238281 -7.953125 8.890625 -8.460938 8.328125 -8.828125 C 7.765625 -9.191406 7.113281 -9.375 6.375 -9.375 C 5.769531 -9.375 5.203125 -9.222656 4.671875 -8.921875 C 4.140625 -8.628906 3.707031 -8.179688 3.375 -7.578125 C 3.050781 -6.972656 2.890625 -6.222656 2.890625 -5.328125 C 2.890625 -4.441406 3.050781 -3.695312 3.375 -3.09375 C 3.707031 -2.488281 4.140625 -2.03125 4.671875 -1.71875 C 5.203125 -1.414062 5.769531 -1.265625 6.375 -1.265625 C 7.113281 -1.265625 7.765625 -1.445312 8.328125 -1.8125 C 8.890625 -2.175781 9.238281 -2.695312 9.375 -3.375 L 11.234375 -3.375 C 11.015625 -2.300781 10.46875 -1.425781 9.59375 -0.75 C 8.71875 -0.0703125 7.648438 0.265625 6.390625 0.265625 Z M 6.390625 0.265625 "/></g></g></g><g fill="#ffffff" fill-opacity="1"><g transform="translate(1362.642711, 398.912782)"><g><path d="M 1.484375 0 L 1.484375 -15.484375 L 3.296875 -15.484375 L 3.296875 -8.84375 C 3.648438 -9.5 4.15625 -10.007812 4.8125 -10.375 C 5.476562 -10.75 6.195312 -10.9375 6.96875 -10.9375 C 8.207031 -10.9375 9.195312 -10.550781 9.9375 -9.78125 C 10.6875 -9.007812 11.0625 -7.828125 11.0625 -6.234375 L 11.0625 0 L 9.265625 0 L 9.265625 -6.046875 C 9.265625 -8.265625 8.367188 -9.375 6.578125 -9.375 C 5.648438 -9.375 4.867188 -9.039062 4.234375 -8.375 C 3.609375 -7.707031 3.296875 -6.757812 3.296875 -5.53125 L 3.296875 0 Z M 1.484375 0 "/></g></g></g><g fill="#ffffff" fill-opacity="1"><g transform="translate(1373.759878, 398.912782)"><g><path d="M 6.28125 0.265625 C 5.257812 0.265625 4.351562 0.03125 3.5625 -0.4375 C 2.78125 -0.90625 2.160156 -1.554688 1.703125 -2.390625 C 1.253906 -3.222656 1.03125 -4.203125 1.03125 -5.328125 C 1.03125 -6.453125 1.25 -7.429688 1.6875 -8.265625 C 2.132812 -9.109375 2.753906 -9.765625 3.546875 -10.234375 C 4.347656 -10.703125 5.273438 -10.9375 6.328125 -10.9375 C 7.359375 -10.9375 8.25 -10.703125 9 -10.234375 C 9.757812 -9.765625 10.335938 -9.148438 10.734375 -8.390625 C 11.140625 -7.628906 11.34375 -6.8125 11.34375 -5.9375 C 11.34375 -5.78125 11.335938 -5.625 11.328125 -5.46875 C 11.316406 -5.3125 11.3125 -5.128906 11.3125 -4.921875 L 2.8125 -4.921875 C 2.863281 -4.109375 3.054688 -3.429688 3.390625 -2.890625 C 3.722656 -2.359375 4.144531 -1.953125 4.65625 -1.671875 C 5.164062 -1.398438 5.707031 -1.265625 6.28125 -1.265625 C 7.03125 -1.265625 7.65625 -1.4375 8.15625 -1.78125 C 8.65625 -2.125 9.019531 -2.59375 9.25 -3.1875 L 11.03125 -3.1875 C 10.75 -2.195312 10.203125 -1.375 9.390625 -0.71875 C 8.578125 -0.0625 7.539062 0.265625 6.28125 0.265625 Z M 6.28125 -9.40625 C 5.414062 -9.40625 4.648438 -9.140625 3.984375 -8.609375 C 3.316406 -8.085938 2.9375 -7.328125 2.84375 -6.328125 L 9.546875 -6.328125 C 9.503906 -7.285156 9.175781 -8.035156 8.5625 -8.578125 C 7.945312 -9.128906 7.1875 -9.40625 6.28125 -9.40625 Z M 6.28125 -9.40625 "/></g></g></g><g fill="#ffffff" fill-opacity="1"><g transform="translate(1384.812541, 398.912782)"><g><path d="M 1.484375 0 L 1.484375 -10.671875 L 3.125 -10.671875 L 3.234375 -8.75 C 3.578125 -9.425781 4.070312 -9.957031 4.71875 -10.34375 C 5.363281 -10.738281 6.09375 -10.9375 6.90625 -10.9375 C 8.164062 -10.9375 9.171875 -10.550781 9.921875 -9.78125 C 10.679688 -9.007812 11.0625 -7.828125 11.0625 -6.234375 L 11.0625 0 L 9.25 0 L 9.25 -6.046875 C 9.25 -8.265625 8.332031 -9.375 6.5 -9.375 C 5.582031 -9.375 4.816406 -9.039062 4.203125 -8.375 C 3.597656 -7.707031 3.296875 -6.757812 3.296875 -5.53125 L 3.296875 0 Z M 1.484375 0 "/></g></g></g><g fill="#ffffff" fill-opacity="1"><g transform="translate(1395.929709, 398.912782)"><g><path d="M 1.484375 0 L 1.484375 -15.484375 L 3.296875 -15.484375 L 3.296875 -6.171875 L 7.65625 -10.671875 L 9.875 -10.671875 L 5.140625 -5.859375 L 10.484375 0 L 8.171875 0 L 3.296875 -5.53125 L 3.296875 0 Z M 1.484375 0 "/></g></g></g><g fill="#ffffff" fill-opacity="1"><g transform="translate(1405.584607, 398.912782)"><g><path d="M 2.109375 0.109375 C 1.753906 0.109375 1.457031 -0.0078125 1.21875 -0.25 C 0.976562 -0.488281 0.859375 -0.78125 0.859375 -1.125 C 0.859375 -1.46875 0.976562 -1.753906 1.21875 -1.984375 C 1.457031 -2.222656 1.753906 -2.34375 2.109375 -2.34375 C 2.453125 -2.34375 2.738281 -2.222656 2.96875 -1.984375 C 3.207031 -1.753906 3.328125 -1.46875 3.328125 -1.125 C 3.328125 -0.78125 3.207031 -0.488281 2.96875 -0.25 C 2.738281 -0.0078125 2.453125 0.109375 2.109375 0.109375 Z M 2.109375 0.109375 "/></g></g></g><g fill="#ffffff" fill-opacity="1"><g transform="translate(1408.59477, 398.912782)"><g><path d="M 6.390625 0.265625 C 5.367188 0.265625 4.453125 0.03125 3.640625 -0.4375 C 2.835938 -0.90625 2.203125 -1.554688 1.734375 -2.390625 C 1.265625 -3.234375 1.03125 -4.210938 1.03125 -5.328125 C 1.03125 -6.453125 1.265625 -7.429688 1.734375 -8.265625 C 2.203125 -9.109375 2.835938 -9.765625 3.640625 -10.234375 C 4.453125 -10.703125 5.367188 -10.9375 6.390625 -10.9375 C 7.648438 -10.9375 8.710938 -10.601562 9.578125 -9.9375 C 10.453125 -9.28125 11.003906 -8.398438 11.234375 -7.296875 L 9.375 -7.296875 C 9.238281 -7.953125 8.890625 -8.460938 8.328125 -8.828125 C 7.765625 -9.191406 7.113281 -9.375 6.375 -9.375 C 5.769531 -9.375 5.203125 -9.222656 4.671875 -8.921875 C 4.140625 -8.628906 3.707031 -8.179688 3.375 -7.578125 C 3.050781 -6.972656 2.890625 -6.222656 2.890625 -5.328125 C 2.890625 -4.441406 3.050781 -3.695312 3.375 -3.09375 C 3.707031 -2.488281 4.140625 -2.03125 4.671875 -1.71875 C 5.203125 -1.414062 5.769531 -1.265625 6.375 -1.265625 C 7.113281 -1.265625 7.765625 -1.445312 8.328125 -1.8125 C 8.890625 -2.175781 9.238281 -2.695312 9.375 -3.375 L 11.234375 -3.375 C 11.015625 -2.300781 10.46875 -1.425781 9.59375 -0.75 C 8.71875 -0.0703125 7.648438 0.265625 6.390625 0.265625 Z M 6.390625 0.265625 "/></g></g></g><g fill="#ffffff" fill-opacity="1"><g transform="translate(1419.66893, 398.912782)"><g><path d="M 6.34375 0.265625 C 5.34375 0.265625 4.441406 0.0351562 3.640625 -0.421875 C 2.835938 -0.890625 2.203125 -1.539062 1.734375 -2.375 C 1.265625 -3.21875 1.03125 -4.203125 1.03125 -5.328125 C 1.03125 -6.460938 1.265625 -7.445312 1.734375 -8.28125 C 2.210938 -9.125 2.859375 -9.773438 3.671875 -10.234375 C 4.484375 -10.703125 5.390625 -10.9375 6.390625 -10.9375 C 7.390625 -10.9375 8.289062 -10.703125 9.09375 -10.234375 C 9.90625 -9.773438 10.539062 -9.125 11 -8.28125 C 11.46875 -7.445312 11.703125 -6.460938 11.703125 -5.328125 C 11.703125 -4.203125 11.460938 -3.21875 10.984375 -2.375 C 10.515625 -1.539062 9.875 -0.890625 9.0625 -0.421875 C 8.257812 0.0351562 7.351562 0.265625 6.34375 0.265625 Z M 6.34375 -1.296875 C 6.957031 -1.296875 7.53125 -1.441406 8.0625 -1.734375 C 8.59375 -2.035156 9.023438 -2.488281 9.359375 -3.09375 C 9.691406 -3.695312 9.859375 -4.441406 9.859375 -5.328125 C 9.859375 -6.222656 9.695312 -6.972656 9.375 -7.578125 C 9.050781 -8.179688 8.625 -8.628906 8.09375 -8.921875 C 7.5625 -9.222656 6.992188 -9.375 6.390625 -9.375 C 5.773438 -9.375 5.203125 -9.222656 4.671875 -8.921875 C 4.140625 -8.628906 3.707031 -8.179688 3.375 -7.578125 C 3.050781 -6.972656 2.890625 -6.222656 2.890625 -5.328125 C 2.890625 -4.441406 3.050781 -3.695312 3.375 -3.09375 C 3.707031 -2.488281 4.132812 -2.035156 4.65625 -1.734375 C 5.175781 -1.441406 5.738281 -1.296875 6.34375 -1.296875 Z M 6.34375 -1.296875 "/></g></g></g><g fill="#ffffff" fill-opacity="1"><g transform="translate(1431.216178, 398.912782)"><g><path d="M 1.484375 0 L 1.484375 -10.671875 L 3.125 -10.671875 L 3.25 -9.125 C 3.59375 -9.695312 4.050781 -10.140625 4.625 -10.453125 C 5.195312 -10.773438 5.84375 -10.9375 6.5625 -10.9375 C 7.40625 -10.9375 8.128906 -10.757812 8.734375 -10.40625 C 9.347656 -10.0625 9.820312 -9.539062 10.15625 -8.84375 C 10.53125 -9.488281 11.039062 -10 11.6875 -10.375 C 12.34375 -10.75 13.050781 -10.9375 13.8125 -10.9375 C 15.09375 -10.9375 16.113281 -10.550781 16.875 -9.78125 C 17.632812 -9.007812 18.015625 -7.828125 18.015625 -6.234375 L 18.015625 0 L 16.21875 0 L 16.21875 -6.046875 C 16.21875 -7.148438 15.992188 -7.976562 15.546875 -8.53125 C 15.109375 -9.09375 14.472656 -9.375 13.640625 -9.375 C 12.773438 -9.375 12.0625 -9.039062 11.5 -8.375 C 10.9375 -7.707031 10.65625 -6.757812 10.65625 -5.53125 L 10.65625 0 L 8.84375 0 L 8.84375 -6.046875 C 8.84375 -7.148438 8.617188 -7.976562 8.171875 -8.53125 C 7.734375 -9.09375 7.097656 -9.375 6.265625 -9.375 C 5.410156 -9.375 4.703125 -9.039062 4.140625 -8.375 C 3.578125 -7.707031 3.296875 -6.757812 3.296875 -5.53125 L 3.296875 0 Z M 1.484375 0 "/></g></g></g><g fill="#ffffff" fill-opacity="1"><g transform="translate(1449.283033, 398.912782)"><g/></g></g><g fill="#ffffff" fill-opacity="1"><g transform="translate(1138.188222, 398.912782)"><g><path d="M 9.296875 4.28125 C 7.765625 4.28125 6.421875 3.984375 5.265625 3.390625 C 4.109375 2.804688 3.207031 1.976562 2.5625 0.90625 C 1.925781 -0.164062 1.609375 -1.441406 1.609375 -2.921875 C 1.609375 -4.441406 1.875 -5.863281 2.40625 -7.1875 C 2.9375 -8.507812 3.679688 -9.664062 4.640625 -10.65625 C 5.609375 -11.644531 6.742188 -12.410156 8.046875 -12.953125 C 9.347656 -13.492188 10.78125 -13.765625 12.34375 -13.765625 C 13.9375 -13.765625 15.320312 -13.457031 16.5 -12.84375 C 17.675781 -12.238281 18.582031 -11.394531 19.21875 -10.3125 C 19.863281 -9.226562 20.1875 -7.972656 20.1875 -6.546875 C 20.1875 -5.722656 20.082031 -4.910156 19.875 -4.109375 C 19.675781 -3.316406 19.378906 -2.601562 18.984375 -1.96875 C 18.585938 -1.332031 18.109375 -0.820312 17.546875 -0.4375 C 16.984375 -0.0625 16.332031 0.125 15.59375 0.125 C 14.863281 0.125 14.304688 -0.0546875 13.921875 -0.421875 C 13.546875 -0.796875 13.335938 -1.300781 13.296875 -1.9375 C 12.847656 -1.289062 12.28125 -0.785156 11.59375 -0.421875 C 10.914062 -0.0546875 10.203125 0.125 9.453125 0.125 C 8.359375 0.125 7.503906 -0.203125 6.890625 -0.859375 C 6.285156 -1.515625 5.984375 -2.40625 5.984375 -3.53125 C 5.984375 -4.320312 6.109375 -5.078125 6.359375 -5.796875 C 6.609375 -6.523438 6.960938 -7.171875 7.421875 -7.734375 C 7.878906 -8.296875 8.421875 -8.742188 9.046875 -9.078125 C 9.679688 -9.410156 10.390625 -9.578125 11.171875 -9.578125 C 12.617188 -9.578125 13.554688 -8.976562 13.984375 -7.78125 L 14.265625 -9.34375 L 15.796875 -9.34375 L 14.71875 -3.1875 C 14.613281 -2.570312 14.644531 -2.070312 14.8125 -1.6875 C 14.976562 -1.3125 15.328125 -1.125 15.859375 -1.125 C 16.316406 -1.125 16.722656 -1.285156 17.078125 -1.609375 C 17.441406 -1.929688 17.742188 -2.359375 17.984375 -2.890625 C 18.234375 -3.429688 18.414062 -4.015625 18.53125 -4.640625 C 18.65625 -5.265625 18.71875 -5.867188 18.71875 -6.453125 C 18.71875 -8.328125 18.132812 -9.800781 16.96875 -10.875 C 15.800781 -11.957031 14.191406 -12.5 12.140625 -12.5 C 10.828125 -12.5 9.625 -12.253906 8.53125 -11.765625 C 7.4375 -11.273438 6.476562 -10.597656 5.65625 -9.734375 C 4.84375 -8.878906 4.207031 -7.882812 3.75 -6.75 C 3.300781 -5.625 3.078125 -4.398438 3.078125 -3.078125 C 3.078125 -1.785156 3.34375 -0.6875 3.875 0.21875 C 4.40625 1.125 5.15625 1.8125 6.125 2.28125 C 7.101562 2.75 8.269531 2.984375 9.625 2.984375 C 10.238281 2.984375 10.851562 2.921875 11.46875 2.796875 C 12.082031 2.679688 12.65625 2.503906 13.1875 2.265625 L 13.484375 3.484375 C 12.191406 4.015625 10.796875 4.28125 9.296875 4.28125 Z M 9.984375 -1.25 C 10.597656 -1.25 11.160156 -1.410156 11.671875 -1.734375 C 12.191406 -2.066406 12.617188 -2.523438 12.953125 -3.109375 C 13.285156 -3.691406 13.488281 -4.363281 13.5625 -5.125 C 13.65625 -5.96875 13.503906 -6.691406 13.109375 -7.296875 C 12.710938 -7.898438 12.078125 -8.203125 11.203125 -8.203125 C 10.472656 -8.203125 9.835938 -7.988281 9.296875 -7.5625 C 8.765625 -7.132812 8.351562 -6.582031 8.0625 -5.90625 C 7.78125 -5.238281 7.640625 -4.539062 7.640625 -3.8125 C 7.640625 -3.03125 7.835938 -2.40625 8.234375 -1.9375 C 8.628906 -1.476562 9.210938 -1.25 9.984375 -1.25 Z M 9.984375 -1.25 "/></g></g></g><g fill="#ffffff" fill-opacity="1"><g transform="translate(1158.78864, 398.912782)"><g><path d="M 1.484375 4.734375 L 1.484375 -10.671875 L 3.125 -10.671875 L 3.296875 -8.90625 C 3.640625 -9.425781 4.128906 -9.894531 4.765625 -10.3125 C 5.398438 -10.726562 6.210938 -10.9375 7.203125 -10.9375 C 8.265625 -10.9375 9.191406 -10.691406 9.984375 -10.203125 C 10.773438 -9.710938 11.390625 -9.039062 11.828125 -8.1875 C 12.265625 -7.34375 12.484375 -6.382812 12.484375 -5.3125 C 12.484375 -4.238281 12.265625 -3.28125 11.828125 -2.4375 C 11.390625 -1.601562 10.769531 -0.941406 9.96875 -0.453125 C 9.175781 0.0234375 8.25 0.265625 7.1875 0.265625 C 6.3125 0.265625 5.53125 0.0859375 4.84375 -0.265625 C 4.164062 -0.628906 3.648438 -1.132812 3.296875 -1.78125 L 3.296875 4.734375 Z M 7 -1.3125 C 7.707031 -1.3125 8.332031 -1.476562 8.875 -1.8125 C 9.425781 -2.15625 9.859375 -2.625 10.171875 -3.21875 C 10.492188 -3.820312 10.65625 -4.523438 10.65625 -5.328125 C 10.65625 -6.140625 10.492188 -6.84375 10.171875 -7.4375 C 9.859375 -8.039062 9.425781 -8.507812 8.875 -8.84375 C 8.332031 -9.1875 7.707031 -9.359375 7 -9.359375 C 6.28125 -9.359375 5.644531 -9.1875 5.09375 -8.84375 C 4.550781 -8.507812 4.117188 -8.039062 3.796875 -7.4375 C 3.484375 -6.84375 3.328125 -6.140625 3.328125 -5.328125 C 3.328125 -4.523438 3.484375 -3.820312 3.796875 -3.21875 C 4.117188 -2.625 4.550781 -2.15625 5.09375 -1.8125 C 5.644531 -1.476562 6.28125 -1.3125 7 -1.3125 Z M 7 -1.3125 "/></g></g></g><g fill="#ffffff" fill-opacity="1"><g transform="translate(1171.110025, 398.912782)"><g><path d="M 5.703125 0 C 4.722656 0 3.953125 -0.234375 3.390625 -0.703125 C 2.835938 -1.179688 2.5625 -2.035156 2.5625 -3.265625 L 2.5625 -9.140625 L 0.703125 -9.140625 L 0.703125 -10.671875 L 2.5625 -10.671875 L 2.796875 -13.234375 L 4.375 -13.234375 L 4.375 -10.671875 L 7.515625 -10.671875 L 7.515625 -9.140625 L 4.375 -9.140625 L 4.375 -3.265625 C 4.375 -2.597656 4.507812 -2.144531 4.78125 -1.90625 C 5.050781 -1.664062 5.53125 -1.546875 6.21875 -1.546875 L 7.34375 -1.546875 L 7.34375 0 Z M 5.703125 0 "/></g></g></g><g fill="#ffffff" fill-opacity="1"><g transform="translate(1178.248955, 398.912782)"><g><path d="M 1.484375 0 L 1.484375 -15.484375 L 3.296875 -15.484375 L 3.296875 -8.84375 C 3.648438 -9.5 4.15625 -10.007812 4.8125 -10.375 C 5.476562 -10.75 6.195312 -10.9375 6.96875 -10.9375 C 8.207031 -10.9375 9.195312 -10.550781 9.9375 -9.78125 C 10.6875 -9.007812 11.0625 -7.828125 11.0625 -6.234375 L 11.0625 0 L 9.265625 0 L 9.265625 -6.046875 C 9.265625 -8.265625 8.367188 -9.375 6.578125 -9.375 C 5.648438 -9.375 4.867188 -9.039062 4.234375 -8.375 C 3.609375 -7.707031 3.296875 -6.757812 3.296875 -5.53125 L 3.296875 0 Z M 1.484375 0 "/></g></g></g><g fill="#ffffff" fill-opacity="1"><g transform="translate(1189.366122, 398.912782)"><g><path d="M 1.484375 0 L 1.484375 -10.671875 L 3.125 -10.671875 L 3.234375 -8.75 C 3.578125 -9.425781 4.070312 -9.957031 4.71875 -10.34375 C 5.363281 -10.738281 6.09375 -10.9375 6.90625 -10.9375 C 8.164062 -10.9375 9.171875 -10.550781 9.921875 -9.78125 C 10.679688 -9.007812 11.0625 -7.828125 11.0625 -6.234375 L 11.0625 0 L 9.25 0 L 9.25 -6.046875 C 9.25 -8.265625 8.332031 -9.375 6.5 -9.375 C 5.582031 -9.375 4.816406 -9.039062 4.203125 -8.375 C 3.597656 -7.707031 3.296875 -6.757812 3.296875 -5.53125 L 3.296875 0 Z M 1.484375 0 "/></g></g></g><g fill="#ffffff" fill-opacity="1"><g transform="translate(1200.48329, 398.912782)"><g><path d="M 6.28125 0.265625 C 5.257812 0.265625 4.351562 0.03125 3.5625 -0.4375 C 2.78125 -0.90625 2.160156 -1.554688 1.703125 -2.390625 C 1.253906 -3.222656 1.03125 -4.203125 1.03125 -5.328125 C 1.03125 -6.453125 1.25 -7.429688 1.6875 -8.265625 C 2.132812 -9.109375 2.753906 -9.765625 3.546875 -10.234375 C 4.347656 -10.703125 5.273438 -10.9375 6.328125 -10.9375 C 7.359375 -10.9375 8.25 -10.703125 9 -10.234375 C 9.757812 -9.765625 10.335938 -9.148438 10.734375 -8.390625 C 11.140625 -7.628906 11.34375 -6.8125 11.34375 -5.9375 C 11.34375 -5.78125 11.335938 -5.625 11.328125 -5.46875 C 11.316406 -5.3125 11.3125 -5.128906 11.3125 -4.921875 L 2.8125 -4.921875 C 2.863281 -4.109375 3.054688 -3.429688 3.390625 -2.890625 C 3.722656 -2.359375 4.144531 -1.953125 4.65625 -1.671875 C 5.164062 -1.398438 5.707031 -1.265625 6.28125 -1.265625 C 7.03125 -1.265625 7.65625 -1.4375 8.15625 -1.78125 C 8.65625 -2.125 9.019531 -2.59375 9.25 -3.1875 L 11.03125 -3.1875 C 10.75 -2.195312 10.203125 -1.375 9.390625 -0.71875 C 8.578125 -0.0625 7.539062 0.265625 6.28125 0.265625 Z M 6.28125 -9.40625 C 5.414062 -9.40625 4.648438 -9.140625 3.984375 -8.609375 C 3.316406 -8.085938 2.9375 -7.328125 2.84375 -6.328125 L 9.546875 -6.328125 C 9.503906 -7.285156 9.175781 -8.035156 8.5625 -8.578125 C 7.945312 -9.128906 7.1875 -9.40625 6.28125 -9.40625 Z M 6.28125 -9.40625 "/></g></g></g><g fill="#ffffff" fill-opacity="1"><g transform="translate(1211.535947, 398.912782)"><g><path d="M 6.34375 0.265625 C 5.34375 0.265625 4.441406 0.0351562 3.640625 -0.421875 C 2.835938 -0.890625 2.203125 -1.539062 1.734375 -2.375 C 1.265625 -3.21875 1.03125 -4.203125 1.03125 -5.328125 C 1.03125 -6.460938 1.265625 -7.445312 1.734375 -8.28125 C 2.210938 -9.125 2.859375 -9.773438 3.671875 -10.234375 C 4.484375 -10.703125 5.390625 -10.9375 6.390625 -10.9375 C 7.390625 -10.9375 8.289062 -10.703125 9.09375 -10.234375 C 9.90625 -9.773438 10.539062 -9.125 11 -8.28125 C 11.46875 -7.445312 11.703125 -6.460938 11.703125 -5.328125 C 11.703125 -4.203125 11.460938 -3.21875 10.984375 -2.375 C 10.515625 -1.539062 9.875 -0.890625 9.0625 -0.421875 C 8.257812 0.0351562 7.351562 0.265625 6.34375 0.265625 Z M 6.34375 -1.296875 C 6.957031 -1.296875 7.53125 -1.441406 8.0625 -1.734375 C 8.59375 -2.035156 9.023438 -2.488281 9.359375 -3.09375 C 9.691406 -3.695312 9.859375 -4.441406 9.859375 -5.328125 C 9.859375 -6.222656 9.695312 -6.972656 9.375 -7.578125 C 9.050781 -8.179688 8.625 -8.628906 8.09375 -8.921875 C 7.5625 -9.222656 6.992188 -9.375 6.390625 -9.375 C 5.773438 -9.375 5.203125 -9.222656 4.671875 -8.921875 C 4.140625 -8.628906 3.707031 -8.179688 3.375 -7.578125 C 3.050781 -6.972656 2.890625 -6.222656 2.890625 -5.328125 C 2.890625 -4.441406 3.050781 -3.695312 3.375 -3.09375 C 3.707031 -2.488281 4.132812 -2.035156 4.65625 -1.734375 C 5.175781 -1.441406 5.738281 -1.296875 6.34375 -1.296875 Z M 6.34375 -1.296875 "/></g></g></g></svg>