<svg width="1710" height="281" viewBox="0 0 1710 281" fill="none" xmlns="http://www.w3.org/2000/svg">
<g clip-path="url(#clip0_2_35)">
<path d="M3.85 262V17H99.75C117.017 17 131.367 19.6833 142.8 25.05C154.467 30.4167 163.217 37.8833 169.05 47.45C174.883 56.7833 177.8 67.6333 177.8 80C177.8 92.3667 175.117 102.75 169.75 111.15C164.383 119.55 157.267 125.967 148.4 130.4C139.767 134.833 130.317 137.517 120.05 138.45L125.3 134.6C136.267 134.833 146.067 137.75 154.7 143.35C163.567 148.95 170.567 156.3 175.7 165.4C180.833 174.267 183.4 184.183 183.4 195.15C183.4 207.983 180.25 219.533 173.95 229.8C167.883 239.833 158.9 247.767 147 253.6C135.1 259.2 120.517 262 103.25 262H3.85ZM45.85 227.7H96.95C110.717 227.7 121.45 224.433 129.15 217.9C136.85 211.367 140.7 202.267 140.7 190.6C140.7 178.933 136.733 169.717 128.8 162.95C120.867 155.95 110.017 152.45 96.25 152.45H45.85V227.7ZM45.85 120.6H93.8C107.333 120.6 117.6 117.567 124.6 111.5C131.6 105.2 135.1 96.5667 135.1 85.6C135.1 74.8667 131.6 66.4667 124.6 60.4C117.6 54.1 107.217 50.95 93.45 50.95H45.85V120.6ZM272.825 266.2C255.325 266.2 239.925 262.467 226.625 255C213.325 247.3 202.942 236.567 195.475 222.8C188.009 209.033 184.275 193.167 184.275 175.2C184.275 156.533 187.892 140.2 195.125 126.2C202.592 112.2 212.975 101.233 226.275 93.3C239.809 85.3667 255.442 81.4 273.175 81.4C290.442 81.4 305.492 85.25 318.325 92.95C331.159 100.65 341.075 111.033 348.075 124.1C355.075 136.933 358.575 151.4 358.575 167.5C358.575 169.833 358.575 172.4 358.575 175.2C358.575 178 358.342 180.917 357.875 183.95H214.375V157H316.225C315.759 144.167 311.442 134.133 303.275 126.9C295.109 119.433 284.959 115.7 272.825 115.7C264.192 115.7 256.259 117.683 249.025 121.65C241.792 125.617 236.075 131.567 231.875 139.5C227.675 147.2 225.575 157 225.575 168.9V179.05C225.575 190.017 227.559 199.467 231.525 207.4C235.725 215.333 241.325 221.4 248.325 225.6C255.559 229.567 263.609 231.55 272.475 231.55C282.275 231.55 290.325 229.45 296.625 225.25C303.159 221.05 307.942 215.45 310.975 208.45H353.675C350.409 219.417 345.042 229.333 337.575 238.2C330.109 246.833 320.892 253.717 309.925 258.85C298.959 263.75 286.592 266.2 272.825 266.2ZM365.354 262V85.6H402.454L405.604 115C410.971 104.733 418.671 96.5667 428.704 90.5C438.738 84.4333 450.638 81.4 464.404 81.4C478.638 81.4 490.771 84.4333 500.804 90.5C510.838 96.3333 518.538 104.967 523.904 116.4C529.504 127.833 532.304 142.067 532.304 159.1V262H490.304V162.95C490.304 148.25 487.038 136.933 480.504 129C473.971 121.067 464.288 117.1 451.454 117.1C443.054 117.1 435.471 119.083 428.704 123.05C422.171 127.017 416.921 132.85 412.954 140.55C409.221 148.017 407.354 157.117 407.354 167.85V262H365.354ZM735.133 266.2C717.4 266.2 701.65 263.05 687.883 256.75C674.117 250.45 663.383 241.467 655.683 229.8C647.983 218.133 644.017 204.25 643.783 188.15H688.233C688.233 196.317 690.1 203.667 693.833 210.2C697.8 216.5 703.167 221.517 709.933 225.25C716.933 228.983 725.333 230.85 735.133 230.85C743.533 230.85 750.767 229.567 756.833 227C763.133 224.2 767.917 220.35 771.183 215.45C774.683 210.317 776.433 204.367 776.433 197.6C776.433 189.9 774.567 183.6 770.833 178.7C767.333 173.567 762.433 169.25 756.133 165.75C749.833 162.25 742.6 159.217 734.433 156.65C726.267 153.85 717.633 150.933 708.533 147.9C689.167 141.367 674.583 133.083 664.783 123.05C654.983 112.783 650.083 99.1333 650.083 82.1C650.083 67.8667 653.467 55.6167 660.233 45.35C667 35.0833 676.45 27.15 688.583 21.55C700.95 15.7167 715.183 12.8 731.283 12.8C747.617 12.8 761.85 15.7167 773.983 21.55C786.35 27.3833 796.033 35.55 803.033 46.05C810.267 56.3167 814 68.6833 814.233 83.15H769.433C769.2 77.0833 767.567 71.4833 764.533 66.35C761.5 60.9833 757.067 56.6667 751.233 53.4C745.633 49.9 738.75 48.15 730.583 48.15C723.583 47.9167 717.283 49.0833 711.683 51.65C706.317 53.9833 702 57.4833 698.733 62.15C695.7 66.5833 694.183 72.1833 694.183 78.95C694.183 85.4833 695.583 90.9667 698.383 95.4C701.417 99.6 705.733 103.217 711.333 106.25C716.933 109.05 723.467 111.733 730.933 114.3C738.4 116.867 746.567 119.667 755.433 122.7C767.567 126.667 778.533 131.567 788.333 137.4C798.367 143 806.3 150.35 812.133 159.45C817.967 168.55 820.883 180.333 820.883 194.8C820.883 207.4 817.617 219.183 811.083 230.15C804.55 240.883 794.983 249.633 782.383 256.4C769.783 262.933 754.033 266.2 735.133 266.2ZM911.971 266.2C894.704 266.2 879.188 262.35 865.421 254.65C851.888 246.717 841.271 235.867 833.571 222.1C826.104 208.1 822.371 192.233 822.371 174.5C822.371 156.067 826.104 139.967 833.571 126.2C841.271 112.2 851.888 101.233 865.421 93.3C879.188 85.3667 894.821 81.4 912.321 81.4C934.254 81.4 952.688 87.2333 967.621 98.9C982.554 110.333 992.121 126.083 996.321 146.15H952.221C949.888 137.283 944.988 130.283 937.521 125.15C930.288 120.017 921.654 117.45 911.621 117.45C902.988 117.45 895.054 119.667 887.821 124.1C880.821 128.533 875.221 134.95 871.021 143.35C867.054 151.75 865.071 161.9 865.071 173.8C865.071 182.9 866.238 190.95 868.571 197.95C870.904 204.95 874.171 210.9 878.371 215.8C882.804 220.467 887.821 224.083 893.421 226.65C899.021 229.217 905.088 230.5 911.621 230.5C918.388 230.5 924.454 229.45 929.821 227.35C935.421 225.017 940.088 221.633 943.821 217.2C947.788 212.767 950.588 207.517 952.221 201.45H996.321C992.121 221.05 982.554 236.8 967.621 248.7C952.688 260.367 934.138 266.2 911.971 266.2ZM1004.82 262V9.99999H1046.82V112.9C1052.65 103.333 1060.58 95.75 1070.62 90.15C1080.65 84.3167 1091.97 81.4 1104.57 81.4C1119.03 81.4 1131.28 84.4333 1141.32 90.5C1151.35 96.3333 1158.93 105.083 1164.07 116.75C1169.43 128.183 1172.12 142.533 1172.12 159.8V262H1130.47V163.65C1130.47 148.483 1127.2 136.933 1120.67 129C1114.37 121.067 1104.68 117.1 1091.62 117.1C1083.22 117.1 1075.63 119.2 1068.87 123.4C1062.1 127.367 1056.73 133.2 1052.77 140.9C1048.8 148.367 1046.82 157.583 1046.82 168.55V262H1004.82ZM1267.33 266.2C1249.83 266.2 1234.43 262.467 1221.13 255C1207.83 247.3 1197.45 236.567 1189.98 222.8C1182.51 209.033 1178.78 193.167 1178.78 175.2C1178.78 156.533 1182.4 140.2 1189.63 126.2C1197.1 112.2 1207.48 101.233 1220.78 93.3C1234.31 85.3667 1249.95 81.4 1267.68 81.4C1284.95 81.4 1300 85.25 1312.83 92.95C1325.66 100.65 1335.58 111.033 1342.58 124.1C1349.58 136.933 1353.08 151.4 1353.08 167.5C1353.08 169.833 1353.08 172.4 1353.08 175.2C1353.08 178 1352.85 180.917 1352.38 183.95H1208.88V157H1310.73C1310.26 144.167 1305.95 134.133 1297.78 126.9C1289.61 119.433 1279.46 115.7 1267.33 115.7C1258.7 115.7 1250.76 117.683 1243.53 121.65C1236.3 125.617 1230.58 131.567 1226.38 139.5C1222.18 147.2 1220.08 157 1220.08 168.9V179.05C1220.08 190.017 1222.06 199.467 1226.03 207.4C1230.23 215.333 1235.83 221.4 1242.83 225.6C1250.06 229.567 1258.11 231.55 1266.98 231.55C1276.78 231.55 1284.83 229.45 1291.13 225.25C1297.66 221.05 1302.45 215.45 1305.48 208.45H1348.18C1344.91 219.417 1339.55 229.333 1332.08 238.2C1324.61 246.833 1315.4 253.717 1304.43 258.85C1293.46 263.75 1281.1 266.2 1267.33 266.2ZM1359.86 262V85.6H1396.96L1400.11 115C1405.48 104.733 1413.18 96.5667 1423.21 90.5C1433.24 84.4333 1445.14 81.4 1458.91 81.4C1473.14 81.4 1485.28 84.4333 1495.31 90.5C1505.34 96.3333 1513.04 104.967 1518.41 116.4C1524.01 127.833 1526.81 142.067 1526.81 159.1V262H1484.81V162.95C1484.81 148.25 1481.54 136.933 1475.01 129C1468.48 121.067 1458.79 117.1 1445.96 117.1C1437.56 117.1 1429.98 119.083 1423.21 123.05C1416.68 127.017 1411.43 132.85 1407.46 140.55C1403.73 148.017 1401.86 157.117 1401.86 167.85V262H1359.86ZM1652.84 262L1574.79 165.4L1644.79 85.6H1694.84L1607.69 182.55V150L1705.34 262H1652.84ZM1539.09 262V9.99999H1581.09V262H1539.09Z" fill="white"/>
</g>
<defs>
<clipPath id="clip0_2_35">
<rect width="1710" height="281" fill="white"/>
</clipPath>
</defs>
</svg>
